<svg xmlns="http://www.w3.org/2000/svg" xmlns:xlink="http://www.w3.org/1999/xlink" id="Ebene_1" width="24" height="24" x="0" style="enable-background:new 0 0 24 24" y="0" version="1.1" viewBox="0 0 24 24" xml:space="preserve"><style type="text/css">.st0{fill:#fff}.st1{fill:#28a050}</style><path d="M20,6v12H4V6H20 M20,4H4C2.9,4,2,4.9,2,6v12c0,1.1,0.9,2,2,2h16c1.1,0,2-0.9,2-2V6C22,4.9,21.1,4,20,4L20,4z" class="st0"/><path d="M6.5,7C5.7,7,5,7.7,5,8.5C5,9.3,5.7,10,6.5,10S8,9.3,8,8.5C8,7.7,7.3,7,6.5,7L6.5,7z" class="st0"/><path d="M14.5,13.3L15,14h-1.1L14.5,13.3 M14.5,10L11,14.5l-2.5-3L5,16h14L14.5,10L14.5,10z" class="st0"/><circle cx="18" cy="18" r="6" class="st1"/><polygon points="22 17 19 17 19 14 17 14 17 17 14 17 14 19 17 19 17 22 19 22 19 19 22 19" class="st0"/></svg>