<svg xmlns="http://www.w3.org/2000/svg" xmlns:xlink="http://www.w3.org/1999/xlink" id="Ebene_1" width="48" height="48" x="0" style="enable-background:new 0 0 48 48" y="0" version="1.1" viewBox="0 0 48 48" xml:space="preserve"><style type="text/css">.st0{fill:#fff}</style><polygon points="44 11.4 34.8 3.7 32.2 6.8 41.4 14.5" class="st0"/><polygon points="15.8 6.8 13.2 3.7 4 11.4 6.6 14.5" class="st0"/><path d="M24,8C14.1,8,6,16.1,6,26s8.1,18,18,18s18-8.1,18-18S33.9,8,24,8z M24,40c-7.7,0-14-6.3-14-14s6.3-14,14-14	s14,6.3,14,14S31.7,40,24,40z" class="st0"/><polygon points="25 16 22 16 22 28 31.5 33.7 33 31.2 25 26.5" class="st0"/></svg>