<svg xmlns="http://www.w3.org/2000/svg" xmlns:xlink="http://www.w3.org/1999/xlink" id="Ebene_1" width="24" height="24" x="0" style="enable-background:new 0 0 24 24" y="0" version="1.1" viewBox="0 0 24 24" xml:space="preserve"><style type="text/css">.st0{fill:none}.st1{fill:#fff}</style><path d="M0,0h24v24H0V0z" class="st0"/><g><path d="M12,3.2l7,3.1V11c0,4.5-3,8.7-7,9.9c-4-1.3-7-5.4-7-9.9V6.3L12,3.2 M12,1L3,5v6c0,5.6,3.8,10.7,9,12 c5.2-1.3,9-6.5,9-12V5L12,1L12,1z" class="st1"/></g><polygon points="10 17 6 13 7.4 11.6 10 14.2 16.6 7.6 18 9" class="st1"/></svg>