<svg xmlns="http://www.w3.org/2000/svg" xmlns:xlink="http://www.w3.org/1999/xlink" id="Ebene_1" width="24" height="24" x="0" style="enable-background:new 0 0 24 24" y="0" version="1.1" viewBox="0 0 24 24" xml:space="preserve"><style type="text/css">.st0{fill:#fff}</style><g><polygon points="6 8 4 8 4 18 2 18 2 20 4 20 4 22 6 22 6 20 6 18" class="st0"/><polygon points="6 6 16 6 16 4 6 4 6 2 4 2 4 4 2 4 2 6 4 6" class="st0"/><polygon points="20 4 20 2 18 2 18 4 18 6 18 16 20 16 20 6 22 6 22 4" class="st0"/><polygon points="18 18 8 18 8 20 18 20 18 22 20 22 20 20 22 20 22 18 20 18" class="st0"/></g></svg>