<svg xmlns="http://www.w3.org/2000/svg" xmlns:xlink="http://www.w3.org/1999/xlink" id="Ebene_1" width="24" height="24" x="0" style="enable-background:new 0 0 24 24" y="0" version="1.1" viewBox="0 0 24 24" xml:space="preserve"><style type="text/css">.st0{fill:#fff}</style><path d="M15,3l2.3,2.3l-2.9,2.9l1.4,1.4l2.9-2.9L21,9V3H15z M3,9l2.3-2.3l2.9,2.9l1.4-1.4L6.7,5.3L9,3H3V9z M9,21	l-2.3-2.3l2.9-2.9l-1.4-1.4l-2.9,2.9L3,15v6H9z M21,15l-2.3,2.3l-2.9-2.9l-1.4,1.4l2.9,2.9L15,21h6V15z" class="st0"/></svg>