<svg xmlns="http://www.w3.org/2000/svg" xmlns:xlink="http://www.w3.org/1999/xlink" id="Ebene_1" width="24" height="24" x="0" style="enable-background:new 0 0 24 24" y="0" version="1.1" viewBox="0 0 24 24" xml:space="preserve"><style type="text/css">.st0{fill:#fff}</style><path d="M12.2,1C7.2,0.9,3,5.3,3,10.3l0,5.8C3,18.1,3.9,19,5,19l0-8.7C5,6.4,8,3.1,11.9,3c4-0.1,7.1,3.1,7.1,7v10	c0,0.6-0.4,1-1,1h-6v2h6c1.7,0,3-1.3,3-3V10C21,5.1,17.1,1.1,12.2,1z" class="st0"/><path d="M7,19H5v-8h2c1.1,0,2,0.9,2,2v4C9,18.1,8.1,19,7,19z" class="st0"/><path d="M17,19h2v-8h-2c-1.1,0-2,0.9-2,2v4C15,18.1,15.9,19,17,19z" class="st0"/></svg>