<svg xmlns="http://www.w3.org/2000/svg" xmlns:xlink="http://www.w3.org/1999/xlink" id="Ebene_1" width="24" height="24" x="0" style="enable-background:new 0 0 24 24" y="0" version="1.1" viewBox="0 0 24 24" xml:space="preserve"><style type="text/css">.st0{fill:none}.st1{fill:#fff}</style><path d="M0,0h24v24H0V0z" class="st0"/><path d="M18.9,6c-0.2-0.6-0.8-1-1.4-1h-11C5.8,5,5.3,5.4,5.1,6L3,12v8c0,0.5,0.5,1,1,1h1c0.6,0,1-0.5,1-1v-1h12v1	c0,0.5,0.5,1,1,1h1c0.5,0,1-0.5,1-1v-8L18.9,6z M6.8,7h10.3l1.1,3.1H5.8L6.8,7z M19,17H5v-5h14V17z" class="st1"/><circle cx="7.5" cy="14.5" r="1.5" class="st1"/><circle cx="16.5" cy="14.5" r="1.5" class="st1"/></svg>