<svg xmlns="http://www.w3.org/2000/svg" xmlns:xlink="http://www.w3.org/1999/xlink" id="Ebene_1" width="24" height="24" x="0" style="enable-background:new 0 0 24 24" y="0" version="1.1" viewBox="0 0 24 24" xml:space="preserve"><style type="text/css">.st0{fill:#fff}</style><polyline points="5 15.5 11 15.5 11 19.5 5 19.5 5 15.5" class="st0"/><polyline points="1 10 7 10 7 14 1 14 1 10" class="st0"/><polyline points="9 10 15 10 15 14 9 14 9 10" class="st0"/><polyline points="17 10 23 10 23 14 17 14 17 10" class="st0"/><polyline points="13 15.5 19 15.5 19 19.5 13 19.5 13 15.5" class="st0"/><polyline points="5 4 11 4 11 8 5 8 5 4" class="st0"/><rect width="6" height="4" x="13" y="4" class="st0"/></svg>