<svg xmlns="http://www.w3.org/2000/svg" xmlns:xlink="http://www.w3.org/1999/xlink" id="Ebene_1" width="24" height="24" x="0" style="enable-background:new 0 0 24 24" y="0" version="1.1" viewBox="0 0 24 24" xml:space="preserve"><style type="text/css">.st0{fill:#fff}</style><path d="M20,6h-4V4c0-1.1-0.9-2-2-2h-4C8.9,2,8,2.9,8,4v2H4C2.9,6,2,6.9,2,8v5v1v5c0,1.1,0.9,2,2,2h16c1.1,0,2-0.9,2-2	v-5v-1V8C22,6.9,21.1,6,20,6z M10,4.4C10,4.2,10.2,4,10.4,4h3.2C13.8,4,14,4.2,14,4.4V6h-4V4.4z M20,19H4v-5h2v2h2v-2h8v2h2v-2h2V19	z M18,13v-1h-2v1H8v-1H6v1H4V8h4h2h4h2h4v5H18z" class="st0"/></svg>