<svg xmlns="http://www.w3.org/2000/svg" xmlns:xlink="http://www.w3.org/1999/xlink" id="Ebene_1" width="24" height="24" x="0" y="0" enable-background="new 0 0 24 24" version="1.1" viewBox="0 0 24 24" xml:space="preserve"><path fill="#FFF" d="M12.3,16.3l-2,2c-0.7,0.7-1.9,0.7-2.6,0C7.4,18,7.2,17.5,7.2,17s0.2-0.9,0.5-1.3l3.3-3.3	c1.5,0.9,3.5,0.7,4.8-0.6l3-3c1.6-1.6,1.6-4.1,0-5.7c-1.6-1.6-4.1-1.6-5.7,0l-3,3C8.9,7.5,8.7,9.5,9.6,11l-3.3,3.3	C5.6,15,5.2,16,5.2,17s0.4,2,1.1,2.7c1.5,1.5,3.9,1.5,5.4,0l2-2c0.7-0.7,1.9-0.7,2.6,0s0.7,1.9,0,2.6c-0.4,0.4-0.4,1,0,1.4	c0.2,0.2,0.5,0.3,0.7,0.3s0.5-0.1,0.7-0.3c1.5-1.5,1.5-3.9,0-5.4S13.8,14.8,12.3,16.3z M13,7c1.1,0,2,0.9,2,2s-0.9,2-2,2s-2-0.9-2-2	S11.9,7,13,7z"/></svg>