<svg xmlns="http://www.w3.org/2000/svg" xmlns:xlink="http://www.w3.org/1999/xlink" id="Ebene_1" width="24" height="24" x="0" y="0" enable-background="new 0 0 24 24" version="1.1" viewBox="0 0 24 24" xml:space="preserve"><path fill="#FFF" d="M9,21c0,0.6,0.4,1,1,1s1-0.4,1-1v-9H9V21z"/><path fill="#FFF" d="M13,21c0,0.6,0.4,1,1,1s1-0.4,1-1v-9h-2V21z"/><path fill="#FFF" d="M16,4v1.8c-0.6,0.5-1,1.3-1,2.2c0,0.8,0.3,1.5,0.8,2H15h-2h-2H9H8.3C8.7,9.5,9,8.8,9,8c0-0.9-0.4-1.7-1-2.3	V4H16 M16,2H8C6.9,2,6,2.9,6,4v3c0.6,0,1,0.4,1,1c0,0.6-0.4,1-1,1c0,0,0,0,0,0v1c0,1.1,0.9,2,2,2h1h2h2h2h1c1.1,0,2-0.9,2-2V9	c0,0,0,0,0,0c-0.5,0-1-0.4-1-1c0-0.6,0.5-1,1-1V4C18,2.9,17.1,2,16,2L16,2z"/></svg>