<svg xmlns="http://www.w3.org/2000/svg" xmlns:xlink="http://www.w3.org/1999/xlink" id="Ebene_1" width="24" height="24" x="0" y="0" enable-background="new 0 0 24 24" version="1.1" viewBox="0 0 24 24" xml:space="preserve"><g><path fill="#FFF" d="M16.9,5l-4.5,5.8L12,11.3V12v5.6V12v-0.7l-0.4-0.5L7.1,5H16.9 M19,3H5C4.8,3,4.6,3.1,4.4,3.2 C4,3.5,3.9,4.2,4.2,4.6L10,12v7.9c0,0.3,0.1,0.6,0.3,0.8c0.2,0.2,0.4,0.3,0.7,0.3s0.5-0.1,0.7-0.3l2-2c0.2-0.2,0.3-0.5,0.3-0.8V12 l5.8-7.4c0.3-0.4,0.2-1-0.2-1.4C19.4,3.1,19.2,3,19,3L19,3z"/></g><circle cx="18" cy="18" r="6" fill="#F44336"/><polygon fill="#FFF" points="20.1 14.5 18 16.6 15.9 14.5 14.5 15.9 16.6 18 14.5 20.1 15.9 21.5 18 19.4 20.1 21.5 21.5 20.1 19.4 18 21.5 15.9"/></svg>