<svg xmlns="http://www.w3.org/2000/svg" xmlns:xlink="http://www.w3.org/1999/xlink" id="Ebene_1" width="24" height="24" x="0" y="0" enable-background="new 0 0 24 24" version="1.1" viewBox="0 0 24 24" xml:space="preserve"><polygon fill="#FFF" points="18 15 15 12 15 14 8 14 8 16 15 16 15 18"/><g><path fill="#FFF" d="M17,6h-4h-1c-1.1,0-2,0.9-2,2v0.4V12h2V8h4.2H17v3h3v9h-8v-2h-2v1.6v0.9c0,0.8,0.7,1.5,1.5,1.5h9 c0.8,0,1.5-0.7,1.5-1.5V11L17,6z"/><path fill="#FFF" d="M8,16H4V4h1.1h3.1H11L9,2H3.5C2.7,2,2,2.7,2,3.5v13C2,17.3,2.7,18,3.5,18H8V16z"/></g></svg>