<svg xmlns="http://www.w3.org/2000/svg" xmlns:xlink="http://www.w3.org/1999/xlink" id="Ebene_1" width="24" height="24" x="0" y="0" enable-background="new 0 0 24 24" version="1.1" viewBox="0 0 24 24" xml:space="preserve"><rect width="4" height="2" x="14" y="11" fill="#FFF"/><rect width="2" height="4" x="11" y="10" fill="#FFF"/><rect width="4" height="2" x="6" y="11" fill="#FFF"/><rect width="2" height="4" x="3" y="10" fill="#FFF"/><rect width="2" height="4" x="19" y="10" fill="#FFF"/><rect width="3" height="2" x="3" y="7" fill="#FFF"/><rect width="4" height="2" x="10" y="7" fill="#FFF"/><rect width="3" height="2" x="18" y="7" fill="#FFF"/><rect width="2" height="4" x="15" y="6" fill="#FFF"/><rect width="2" height="4" x="7" y="6" fill="#FFF"/><rect width="3" height="2" x="3" y="15" fill="#FFF"/><rect width="4" height="2" x="10" y="15" fill="#FFF"/><rect width="3" height="2" x="18" y="15" fill="#FFF"/><rect width="2" height="4" x="15" y="14" fill="#FFF"/><rect width="2" height="4" x="7" y="14" fill="#FFF"/><rect width="4" height="2" x="14" y="3" fill="#FFF"/><rect width="2" height="3" x="11" y="3" fill="#FFF"/><rect width="4" height="2" x="6" y="3" fill="#FFF"/><rect width="2" height="3" x="3" y="3" fill="#FFF"/><rect width="2" height="3" x="19" y="3" fill="#FFF"/><rect width="4" height="2" x="14" y="19" fill="#FFF"/><rect width="2" height="3" x="11" y="18" fill="#FFF"/><rect width="4" height="2" x="6" y="19" fill="#FFF"/><rect width="2" height="3" x="3" y="18" fill="#FFF"/><rect width="2" height="3" x="19" y="18" fill="#FFF"/></svg>