<svg xmlns="http://www.w3.org/2000/svg" xmlns:xlink="http://www.w3.org/1999/xlink" id="Ebene_1" width="24" height="24" x="0" y="0" enable-background="new 0 0 24 24" version="1.1" viewBox="0 0 24 24" xml:space="preserve"><path fill="#FFF" d="M20,20H4c-1.7,0-3-1.3-3-3V7c0-1.7,1.3-3,3-3h16c1.7,0,3,1.3,3,3v10C23,18.7,21.7,20,20,20z M4,6	C3.4,6,3,6.4,3,7v10c0,0.6,0.4,1,1,1h16c0.6,0,1-0.4,1-1V7c0-0.6-0.4-1-1-1H4z"/><path fill="#FFF" d="M14,7c-2.8,0-5,2.2-5,5s2.2,5,5,5s5-2.2,5-5S16.8,7,14,7z M14,15c-1.7,0-3-1.3-3-3s1.3-3,3-3s3,1.3,3,3	S15.7,15,14,15z"/><path fill="#FFF" d="M7,9H5C4.4,9,4,8.6,4,8l0,0c0-0.6,0.4-1,1-1h2c0.6,0,1,0.4,1,1l0,0C8,8.6,7.6,9,7,9z"/></svg>