<svg xmlns="http://www.w3.org/2000/svg" xmlns:xlink="http://www.w3.org/1999/xlink" id="Ebene_1" width="24" height="24" x="0" y="0" enable-background="new 0 0 24 24" version="1.1" viewBox="0 0 24 24" xml:space="preserve"><path fill="#FFF" d="M20,6h-3c0,0.6-0.4,1-1,1s-1-0.4-1-1h-1c-1.1,0-2,0.9-2,2v1H3c-0.6,0-1,0.4-1,1s0.4,1,1,1h9v2H3	c-0.6,0-1,0.4-1,1s0.4,1,1,1h9v1c0,1.1,0.9,2,2,2h1c0-0.5,0.4-1,1-1s1,0.5,1,1h3c1.1,0,2-0.9,2-2V8C22,6.9,21.1,6,20,6z M20,16	c-0.6,0-1-0.4-1-1s0.4-1,1-1s1,0.4,1,1S20.6,16,20,16z M20,13c-0.6,0-1-0.4-1-1s0.4-1,1-1s1,0.4,1,1S20.6,13,20,13z M20,10	c-0.6,0-1-0.4-1-1s0.4-1,1-1s1,0.4,1,1S20.6,10,20,10z"/></svg>