<svg xmlns="http://www.w3.org/2000/svg" xmlns:xlink="http://www.w3.org/1999/xlink" id="Ebene_1" width="24" height="24" x="0" y="0" enable-background="new 0 0 24 24" version="1.1" viewBox="0 0 24 24" xml:space="preserve"><path fill="#FFF" d="M15.6,16.4c0.2,0.2,0.5,0.2,0.7,0l1.3-1.3c0.2-0.2,0.5-0.2,0.7,0l1.3,1.3c0.2,0.2,0.5,0.2,0.7,0l1.6-1.6	v-1.4l-1.6,1.6c-0.2,0.2-0.5,0.2-0.7,0l-1.3-1.3c-0.2-0.2-0.5-0.2-0.7,0l-1.3,1.3c-0.2,0.2-0.5,0.2-0.7,0L14,13.3V5c0-1.1-0.9-2-2-2	s-2,0.9-2,2v0.3L8.4,6.9c-0.2,0.2-0.5,0.2-0.7,0L6.4,5.6c-0.2-0.2-0.5-0.2-0.7,0L4.4,6.9c-0.2,0.2-0.5,0.2-0.7,0L2,5.3v1.4l1.6,1.6	c0.2,0.2,0.5,0.2,0.7,0l1.3-1.3c0.2-0.2,0.5-0.2,0.7,0l1.3,1.3c0.2,0.2,0.5,0.2,0.7,0L10,6.7v2.6l-1.6,1.6c-0.2,0.2-0.5,0.2-0.7,0	L6.4,9.6c-0.2-0.2-0.5-0.2-0.7,0l-1.3,1.3c-0.2,0.2-0.5,0.2-0.7,0L2,9.3v1.4l1.6,1.6c0.2,0.2,0.5,0.2,0.7,0l1.3-1.3	c0.2-0.2,0.5-0.2,0.7,0l1.3,1.3c0.2,0.2,0.5,0.2,0.7,0l1.6-1.6v2.6l-1.6,1.6c-0.2,0.2-0.5,0.2-0.7,0l-1.3-1.3	c-0.2-0.2-0.5-0.2-0.7,0l-1.3,1.3c-0.2,0.2-0.5,0.2-0.7,0L2,13.3v1.4l1.6,1.6c0.2,0.2,0.5,0.2,0.7,0l1.3-1.3c0.2-0.2,0.5-0.2,0.7,0	l1.3,1.3c0.2,0.2,0.5,0.2,0.7,0l1.6-1.6v2.6l-1.6,1.6c-0.2,0.2-0.5,0.2-0.7,0l-1.3-1.3c-0.2-0.2-0.5-0.2-0.7,0l-1.3,1.3	c-0.2,0.2-0.5,0.2-0.7,0L2,17.3v1.4l1.6,1.6c0.2,0.2,0.5,0.2,0.7,0l1.3-1.3c0.2-0.2,0.5-0.2,0.7,0l1.3,1.3c0.2,0.2,0.5,0.2,0.7,0	l1.6-1.6V21h4v-2.3l1.6,1.6c0.2,0.2,0.5,0.2,0.7,0l1.3-1.3c0.2-0.2,0.5-0.2,0.7,0l1.3,1.3c0.2,0.2,0.5,0.2,0.7,0l1.6-1.6v-1.4	l-1.6,1.6c-0.2,0.2-0.5,0.2-0.7,0l-1.3-1.3c-0.2-0.2-0.5-0.2-0.7,0l-1.3,1.3c-0.2,0.2-0.5,0.2-0.7,0L14,17.3v-2.6L15.6,16.4z"/></svg>