<svg xmlns="http://www.w3.org/2000/svg" xmlns:xlink="http://www.w3.org/1999/xlink" id="Ebene_1" width="24" height="24" x="0" y="0" enable-background="new 0 0 24 24" version="1.1" viewBox="0 0 24 24" xml:space="preserve"><path fill="none" d="M0,0h24v24H0V0z"/><path fill="#FFF" d="M3,20h18v-4H3V20z M4,17h2v2H4V17z M3,4v4h18V4H3z M6,7H4V5h2V7z M3,14h18v-4H3V14z M4,11h2v2H4V11z"/><circle cx="18" cy="18" r="6" fill="#F03C28"/><polygon fill="#FFF" points="20.1 14.5 18 16.6 15.9 14.5 14.5 15.9 16.6 18 14.5 20.1 15.9 21.5 18 19.4 20.1 21.5 21.5 20.1 19.4 18 21.5 15.9"/></svg>