<svg xmlns="http://www.w3.org/2000/svg" xmlns:xlink="http://www.w3.org/1999/xlink" id="Ebene_2_1_" width="24" height="24" x="0" y="0" enable-background="new 0 0 24 24" version="1.1" viewBox="0 0 24 24" xml:space="preserve"><path fill="#FFF" d="M20.8,7.1c-0.1-0.2-0.3-0.4-0.5-0.5l-7.6-4.2c-0.2-0.1-0.4-0.2-0.7-0.2	c-0.2,0-0.5,0-0.7,0.2L3.7,6.6C3.5,6.7,3.3,6.9,3.2,7.1C3.1,7.3,3,7.6,3,7.8v8.4c0,0.5,0.3,1,0.7,1.2l7.6,4.2	c0.2,0.1,0.4,0.2,0.7,0.2s0.5-0.1,0.7-0.2l7.6-4.2c0.4-0.2,0.7-0.7,0.7-1.2V7.8C21,7.6,20.9,7.3,20.8,7.1z M11,19.1l-6-3.3V9.2	l6,3.3V19.1z M13.4,10.1L12,10.9L6.1,7.6l1.5-0.9L13.4,10.1z M10.7,5L12,4.3l5.9,3.3l-1.4,0.8L10.7,5z M13,12.6l1.4-0.8v2.9l3.1-1.7	v-2.9L19,9.2v6.6l-6,3.3V12.6z" enable-background="new"/></svg>