<svg xmlns="http://www.w3.org/2000/svg" xmlns:xlink="http://www.w3.org/1999/xlink" id="Ebene_1" width="24" height="24" x="0" y="0" enable-background="new 0 0 24 24" version="1.1" viewBox="0 0 24 24" xml:space="preserve"><path fill="#FFF" d="M20,6v12H4V6H20 M20,4H4C2.9,4,2,4.9,2,6v12c0,1.1,0.9,2,2,2h16c1.1,0,2-0.9,2-2V6C22,4.9,21.1,4,20,4L20,4z"/><polyline fill="#FFF" points="6 8 12 8 12 9 6 9 6 8"/><polyline fill="#FFF" points="6 14 10 14 10 15 6 15 6 14"/><rect width="6" height="1" x="6" y="10" fill="#FFF"/><rect width="6" height="1" x="6" y="12" fill="#FFF"/><polygon fill="#FFF" points="18 17 14 17 14 22 16 20 18 22"/><g><path fill="#FFF" d="M16,13c1.1,0,2,0.9,2,2s-0.9,2-2,2s-2-0.9-2-2S14.9,13,16,13 M16,12c-1.7,0-3,1.3-3,3s1.3,3,3,3s3-1.3,3-3 S17.7,12,16,12L16,12z"/></g></svg>