<svg xmlns="http://www.w3.org/2000/svg" xmlns:xlink="http://www.w3.org/1999/xlink" id="Ebene_1" width="24" height="24" x="0" y="0" enable-background="new 0 0 24 24" version="1.1" viewBox="0 0 24 24" xml:space="preserve"><g><path fill="#FFF" d="M18,2H6C4.9,2,4,2.9,4,4v14c0,1.1,0.9,2,2,2h4v3l2-2l2,2v-3h4c1.1,0,2-0.9,2-2V4C20,2.9,19.1,2,18,2z M10,16c0-1.1,0.9-2,2-2c1.1,0,2,0.9,2,2c0,1.1-0.9,2-2,2h0C10.9,18,10,17.1,10,16z M18,18h-3.8c0.5-0.5,0.8-1.2,0.8-2 c0-1.7-1.3-3-3-3s-3,1.3-3,3c0,0.8,0.3,1.5,0.8,2H6V4h12V18z"/><rect width="8" height="1" x="8" y="6" fill="#FFF"/><rect width="8" height="1" x="8" y="8" fill="#FFF"/><rect width="8" height="1" x="8" y="10" fill="#FFF"/></g></svg>