<svg xmlns="http://www.w3.org/2000/svg" xmlns:xlink="http://www.w3.org/1999/xlink" id="Ebene_1" width="24" height="24" x="0" y="0" enable-background="new 0 0 24 24" version="1.1" viewBox="0 0 24 24" xml:space="preserve"><path fill="#FFF" d="M19.5,3.7c-0.2,0-0.3,0-0.5,0V3.4c0-1.4-1.1-2.5-2.5-2.5c-0.3,0-0.6,0.1-0.9,0.2C15.1,0.4,14.4,0,13.5,0	c-1.3,0-2.4,1-2.5,2.3c-0.2,0-0.3,0-0.5,0C9.1,2.3,8,3.4,8,4.8v9.5l-2.4-1.2c-0.8-0.4-1.7-0.3-2.3,0.3l-2.1,1.8l7.3,7.6	c0.8,0.7,1.8,1.2,2.9,1.2H18c2.2,0,4-1.8,4-4V6.2C22,4.8,20.9,3.7,19.5,3.7z M20,20c0,1.1-0.9,2-2,2h-6.6c-0.5,0-1-0.2-1.4-0.6	l-5.9-6.1c0,0,0.6-0.5,0.6-0.4l5.3,2.8V4.8c0-0.3,0.2-0.5,0.5-0.5S11,4.5,11,4.8V12h2V2.5C13,2.2,13.2,2,13.5,2S14,2.2,14,2.5V12h2	V3.4c0-0.3,0.2-0.5,0.5-0.5S17,3.1,17,3.4V12h2V6.2c0-0.3,0.2-0.5,0.5-0.5S20,5.9,20,6.2V20z"/></svg>