<svg xmlns="http://www.w3.org/2000/svg" xmlns:xlink="http://www.w3.org/1999/xlink" id="Ebene_1" width="24" height="24" x="0" y="0" enable-background="new 0 0 24 24" version="1.1" viewBox="0 0 24 24" xml:space="preserve"><path fill="#FFF" d="M9,12c0,1.1-0.9,2-2,2s-2-0.9-2-2s0.9-2,2-2S9,10.9,9,12z M13,13h-1.1c-0.4,1.9-2,3.5-3.9,3.9V18H6v-1.1	c-1.9-0.4-3.5-2-3.9-3.9H1v-2h1.1C2.5,9.1,4,7.5,6,7.1V6h2v1.1c2,0.4,3.5,2,3.9,3.9H13V13z M10.5,12c0-1.9-1.6-3.5-3.5-3.5	S3.5,10.1,3.5,12s1.6,3.5,3.5,3.5S10.5,13.9,10.5,12z"/><polygon fill="#FFF" points="22 10 18 6 14 10 17 10 17 14 19 14 19 10"/><rect width="8" height="2" x="14" y="16" fill="#FFF"/></svg>