<svg xmlns="http://www.w3.org/2000/svg" xmlns:xlink="http://www.w3.org/1999/xlink" id="Ebene_1" width="24" height="24" x="0" y="0" enable-background="new 0 0 24 24" version="1.1" viewBox="0 0 24 24" xml:space="preserve"><path fill="#FFF" d="M20,6v12H4V6H20 M20,4H4C2.9,4,2,4.9,2,6v12c0,1.1,0.9,2,2,2h16c1.1,0,2-0.9,2-2V6C22,4.9,21.1,4,20,4L20,4z M6.5,7C5.7,7,5,7.7,5,8.5S5.7,10,6.5,10S8,9.3,8,8.5S7.3,7,6.5,7L6.5,7z M14.5,13.3L15,14h-1.1L14.5,13.3 M14.5,10L11,14.5l-2.5-3	L5,16h14L14.5,10L14.5,10z"/><circle cx="18" cy="18" r="6" fill="#2878F0"/><g><rect width="1.4" height="2" x="19.5" y="14.8" fill="#FFF" transform="matrix(0.7071 -0.7071 0.7071 0.7071 -5.2474 18.9148)"/><polygon fill="#FFF" points="18.3 16.3 15 19.6 15 21 16.4 21 19.7 17.7"/></g></svg>