<svg xmlns="http://www.w3.org/2000/svg" xmlns:xlink="http://www.w3.org/1999/xlink" id="Ebene_1" width="24" height="24" x="0" y="0" enable-background="new 0 0 24 24" version="1.1" viewBox="0 0 24 24" xml:space="preserve"><path fill="#FFF" d="M19.2,9l-1.5-0.1l-0.3-1.5C16.9,4.9,14.6,3,12,3C9.9,3,8.1,4.2,7.1,6L6.7,6.9L5.6,7C3.5,7.2,2,9,2,11	c0,2.2,1.8,4,4,4h4v-4c0-1.1,0.9-2,2-2s2,0.9,2,2v4h2h2h1c1.7,0,3-1.3,3-3C22,10.4,20.8,9.1,19.2,9z"/><rect width="10" height="1" x="7" y="16" fill="#FFF"/><rect width="14" height="1" x="5" y="18" fill="#FFF"/><rect width="18" height="1" x="3" y="20" fill="#FFF"/></svg>