<svg xmlns="http://www.w3.org/2000/svg" xmlns:xlink="http://www.w3.org/1999/xlink" id="Ebene_1" width="24" height="24" x="0" y="0" enable-background="new 0 0 24 24" version="1.1" viewBox="0 0 24 24" xml:space="preserve"><polygon fill="#FFF" points="17 8.4 22 3.4 20.6 2 15 7.6 15 15 13 15 16 18 19 15 17 15"/><polygon fill="#FFF" points="7 8.4 2 3.4 3.4 2 9 7.6 9 15 11 15 8 18 5 15 7 15"/><path fill="#FFF" d="M19,22H5c-1.7,0-3-1.3-3-3v-7h2v7c0,0.6,0.4,1,1,1h14c0.6,0,1-0.4,1-1v-7h2v7C22,20.7,20.7,22,19,22z"/></svg>