<svg xmlns="http://www.w3.org/2000/svg" xmlns:xlink="http://www.w3.org/1999/xlink" id="Ebene_1" width="24" height="24" x="0" y="0" enable-background="new 0 0 24 24" version="1.1" viewBox="0 0 24 24" xml:space="preserve"><path fill="#FFF" d="M16.9,17l-3.6-3.5c0.5-1.2,0.2-2.6-0.7-3.5c-1-1-2.6-1.2-3.8-0.6l2.2,2.2L9.6,13l-2.2-2.2	C6.7,12,6.9,13.5,8,14.6c0.9,0.9,2.3,1.2,3.5,0.7l3.6,3.6c0.2,0.2,0.5,0.2,0.7,0l1.2-1.2C17,17.5,17,17.2,16.9,17z"/><path fill="#FFF" d="M14,2H6C4.9,2,4,2.9,4,4v16c0,1.1,0.9,2,2,2h12c1.1,0,2-0.9,2-2V8L14,2z M6,20V4h7.2H14v4h4v12H6z"/></svg>