<svg xmlns="http://www.w3.org/2000/svg" xmlns:xlink="http://www.w3.org/1999/xlink" id="Ebene_1" width="24" height="24" x="0" y="0" enable-background="new 0 0 24 24" version="1.1" viewBox="0 0 24 24" xml:space="preserve"><g><path fill="#FFF" d="M18,2H6C4.9,2,4,2.9,4,4v16c0,1.1,0.9,2,2,2h12c1.1,0,2-0.9,2-2V4C20,2.9,19.1,2,18,2z M18,20H6v-7h12V20z M18,11H6V4h12V11z"/><polygon fill="#FFF" points="14 15 13 15 13 16 11 16 11 15 10 15 10 17 14 17"/><polygon fill="#FFF" points="14 6 13 6 13 7 11 7 11 6 10 6 10 8 14 8"/></g></svg>