<svg xmlns="http://www.w3.org/2000/svg" xmlns:xlink="http://www.w3.org/1999/xlink" id="Ebene_1" width="24" height="24" x="0" y="0" enable-background="new 0 0 24 24" version="1.1" viewBox="0 0 24 24" xml:space="preserve"><g><path fill="#FFF" d="M9,15v4H5v-4H9 M10,13H4c-0.6,0-1,0.4-1,1v6c0,0.6,0.4,1,1,1h6c0.6,0,1-0.4,1-1v-6C11,13.4,10.6,13,10,13 L10,13z"/></g><g><path fill="#FFF" d="M19,5v4h-4V5H19 M20,3h-6c-0.6,0-1,0.4-1,1v6c0,0.6,0.4,1,1,1h6c0.6,0,1-0.4,1-1V4C21,3.4,20.6,3,20,3L20,3 z"/></g><g><path fill="#FFF" d="M9,5v4H5V5H9 M10,3H4C3.4,3,3,3.4,3,4v6c0,0.6,0.4,1,1,1h6c0.6,0,1-0.4,1-1V4C11,3.4,10.6,3,10,3L10,3z"/></g><g><path fill="#FFF" d="M19,15v4h-4v-4H19 M20,13h-6c-0.6,0-1,0.4-1,1v6c0,0.6,0.4,1,1,1h6c0.6,0,1-0.4,1-1v-6 C21,13.4,20.6,13,20,13L20,13z"/></g></svg>