<svg xmlns="http://www.w3.org/2000/svg" xmlns:xlink="http://www.w3.org/1999/xlink" id="Ebene_1" width="24" height="24" x="0" y="0" enable-background="new 0 0 24 24" version="1.1" viewBox="0 0 24 24" xml:space="preserve"><path fill="#FFF" d="M20,5h2c0.6,0,1-0.4,1-1V2c0-0.6-0.4-1-1-1h-2c-0.6,0-1,0.4-1,1v0.5h-2.5v3H15V5c0-0.6-0.4-1-1-1h-2	c-0.6,0-1,0.4-1,1v0.5H8.5v6H7V10c0-0.6-0.4-1-1-1H2c-0.6,0-1,0.4-1,1v4c0,0.6,0.4,1,1,1h4c0.6,0,1-0.4,1-1v-1.5h1.5v6H11V19	c0,0.6,0.4,1,1,1h2c0.6,0,1-0.4,1-1v-0.5h1.5v3H19V22c0,0.6,0.4,1,1,1h2c0.6,0,1-0.4,1-1v-2c0-0.6-0.4-1-1-1h-2c-0.6,0-1,0.4-1,1	v0.5h-1.5v-2V18v-2.5H19V16c0,0.6,0.4,1,1,1h2c0.6,0,1-0.4,1-1v-2c0-0.6-0.4-1-1-1h-2c-0.6,0-1,0.4-1,1v0.5h-2.5v3H15V17	c0-0.6-0.4-1-1-1h-2c-0.6,0-1,0.4-1,1v0.5H9.5V12v-0.5v-5H11V7c0,0.6,0.4,1,1,1h2c0.6,0,1-0.4,1-1V6.5h1.5v3H19V10c0,0.6,0.4,1,1,1	h2c0.6,0,1-0.4,1-1V8c0-0.6-0.4-1-1-1h-2c-0.6,0-1,0.4-1,1v0.5h-1.5V6V5.5v-2H19V4C19,4.6,19.4,5,20,5z M5,13H3v-2h2V13z"/></svg>