<svg xmlns="http://www.w3.org/2000/svg" xmlns:xlink="http://www.w3.org/1999/xlink" id="Ebene_1" width="24" height="24" x="0" y="0" enable-background="new 0 0 24 24" version="1.1" viewBox="0 0 24 24" xml:space="preserve"><path fill="#FFF" d="M21.4,10.6l-8-8C13,2.2,12.5,2,12,2s-1,0.2-1.4,0.6l-8,8c-0.8,0.8-0.8,2,0,2.8l8,8C11,21.8,11.5,22,12,22	s1-0.2,1.4-0.6l8-8C22.2,12.6,22.2,11.4,21.4,10.6z M19.6,12.4l-7.3,7.3c-0.2,0.2-0.5,0.2-0.7,0l-7.3-7.3c-0.2-0.2-0.2-0.5,0-0.7	l7.3-7.3c0.2-0.2,0.5-0.2,0.7,0l7.3,7.3C19.8,11.8,19.8,12.2,19.6,12.4z M11,15h2v2h-2V15z M11,7h2v6h-2V7z"/></svg>