<svg xmlns="http://www.w3.org/2000/svg" xmlns:xlink="http://www.w3.org/1999/xlink" id="Ebene_1" width="24" height="24" x="0" y="0" enable-background="new 0 0 24 24" version="1.1" viewBox="0 0 24 24" xml:space="preserve"><path fill="#FFF" d="M20,8c-1.9,0-3.4,1.3-3.9,3H7.9C7.4,9.3,5.9,8,4,8c-2.2,0-4,1.8-4,4s1.8,4,4,4c1.9,0,3.4-1.3,3.9-3h8.3	c0.4,1.7,2,3,3.9,3c2.2,0,4-1.8,4-4S22.2,8,20,8z M4,14c-1.1,0-2-0.9-2-2s0.9-2,2-2s2,0.9,2,2S5.1,14,4,14z M20,14c-1.1,0-2-0.9-2-2	s0.9-2,2-2s2,0.9,2,2S21.1,14,20,14z"/></svg>