<svg xmlns="http://www.w3.org/2000/svg" xmlns:xlink="http://www.w3.org/1999/xlink" id="Ebene_1" width="24" height="24" x="0" y="0" enable-background="new 0 0 24 24" version="1.1" viewBox="0 0 24 24" xml:space="preserve"><path fill="#FFF" d="M18,21H6c-1.7,0-3-1.3-3-3V6c0-1.7,1.3-3,3-3h12c1.7,0,3,1.3,3,3v12C21,19.7,19.7,21,18,21z M6,5	C5.4,5,5,5.4,5,6v12c0,0.6,0.4,1,1,1h12c0.6,0,1-0.4,1-1V6c0-0.6-0.4-1-1-1H6z"/><path fill="#FFF" d="M12,7c-2.8,0-5,2.2-5,5s2.2,5,5,5s5-2.2,5-5S14.8,7,12,7z M12,15c-1.7,0-3-1.3-3-3s1.3-3,3-3s3,1.3,3,3	S13.7,15,12,15z"/><circle cx="7" cy="7" r="1" fill="#FFF"/></svg>