<svg xmlns="http://www.w3.org/2000/svg" xmlns:xlink="http://www.w3.org/1999/xlink" id="Ebene_1" width="24" height="24" x="0" y="0" enable-background="new 0 0 24 24" version="1.1" viewBox="0 0 24 24" xml:space="preserve"><path fill="#FFF" d="M18,1H6C4.9,1,4,1.9,4,3v18c0,1.1,0.9,2,2,2h12c1.1,0,2-0.9,2-2V3C20,1.9,19.1,1,18,1z M12.7,22h-2	c-0.6,0-1-0.4-1-1s0.4-1,1-1h2c0.6,0,1,0.4,1,1S13.2,22,12.7,22z M18,19H6V3h12V19z"/><rect width="8" height="1" x="8" y="10" fill="#FFF"/><rect width="8" height="1" x="8" y="12" fill="#FFF"/><rect width="8" height="2" x="8" y="7" fill="#FFF"/><rect width="6" height="1" x="8" y="14" fill="#FFF"/></svg>