<svg xmlns="http://www.w3.org/2000/svg" xmlns:xlink="http://www.w3.org/1999/xlink" id="Ebene_1" width="24" height="24" x="0" y="0" enable-background="new 0 0 24 24" version="1.1" viewBox="0 0 24 24" xml:space="preserve"><g><path fill="#FFF" d="M10,16h4c0.5,0,1-0.5,1-1v-3c0-0.5-0.5-1-1-1v-1c0-1.1-0.9-2-2-2s-2,0.9-2,2v1c-0.5,0-1,0.5-1,1v3 C9,15.5,9.5,16,10,16z M10.8,10c0-0.7,0.5-1.2,1.2-1.2s1.2,0.5,1.2,1.2v1h-2.4V10z"/><path fill="#FFF" d="M18,1H6C4.9,1,4,1.9,4,3v18c0,1.1,0.9,2,2,2h12c1.1,0,2-0.9,2-2V3C20,1.9,19.1,1,18,1z M18,20H6V4h12V20z"/></g></svg>