<svg xmlns="http://www.w3.org/2000/svg" xmlns:xlink="http://www.w3.org/1999/xlink" id="Ebene_1" width="24" height="24" x="0" y="0" enable-background="new 0 0 24 24" version="1.1" viewBox="0 0 24 24" xml:space="preserve"><path fill="#FFF" d="M12,4c2.8,0,5,2.2,5,5c0,2.6-2.7,6.9-5,9.9c-2.1-2.7-5-7-5-9.9C7,6.2,9.2,4,12,4 M12,12c1.7,0,3-1.3,3-3	s-1.3-3-3-3S9,7.3,9,9S10.3,12,12,12 M12,2C8.1,2,5,5.1,5,9c0,5.3,7,13,7,13s7-7.8,7-13C19,5.1,15.9,2,12,2L12,2z M12,10	c-0.6,0-1-0.4-1-1s0.4-1,1-1s1,0.4,1,1S12.6,10,12,10L12,10z"/></svg>