<svg xmlns="http://www.w3.org/2000/svg" xmlns:xlink="http://www.w3.org/1999/xlink" id="Ebene_1" width="24" height="24" x="0" y="0" enable-background="new 0 0 24 24" version="1.1" viewBox="0 0 24 24" xml:space="preserve"><path fill="#FFF" d="M5,4h8c0-1.1-0.9-2-2-2H5C3.9,2,3,2.9,3,4v10c0,1.1,0.9,2,2,2V4z"/><g><path fill="#FFF" d="M19,8h-2h-4c-1.1,0-2,0.9-2,2v9v1c0,1.1,0.9,2,2,2h6c1.1,0,2-0.9,2-2V10C21,8.9,20.1,8,19,8z M17,21h-2v-1 h2V21z M19,19h-6v-9h6V19z"/><path fill="#FFF" d="M9,7h8c0-1.1-0.9-2-2-2h-2H9C7.9,5,7,5.9,7,7v9v1c0,1.1,0.9,2,2,2V7z"/></g></svg>