<svg xmlns="http://www.w3.org/2000/svg" xmlns:xlink="http://www.w3.org/1999/xlink" id="Ebene_1" width="24" height="24" x="0" y="0" enable-background="new 0 0 24 24" version="1.1" viewBox="0 0 24 24" xml:space="preserve"><path fill="#FFF" d="M18,16c-0.8,0-1.6,0.3-2.1,0.9l-7-4.1C9,12.5,9,12.3,9,12c0-0.2,0-0.5-0.1-0.7L16,7.2C16.5,7.7,17.2,8,18,8	c1.7,0,3-1.3,3-3s-1.3-3-3-3s-3,1.3-3,3c0,0.2,0,0.5,0.1,0.7L8,9.8C7.5,9.3,6.8,9,6,9c-1.7,0-3,1.3-3,3s1.3,3,3,3	c0.8,0,1.4-0.3,2-0.8l7.1,4.2c0,0.2-0.1,0.3-0.1,0.5c0,1.7,1.3,3,3,3s3-1.3,3-3S19.7,16,18,16z M18,4c0.6,0,1,0.4,1,1s-0.4,1-1,1	s-1-0.4-1-1S17.4,4,18,4z M5,12c0-0.6,0.4-1,1-1s1,0.4,1,1s-0.4,1-1,1S5,12.6,5,12z M18,20c-0.6,0-1-0.4-1-1c0-0.1,0-0.2,0.1-0.3	l0.3-0.5c0.2-0.1,0.4-0.2,0.6-0.2c0.6,0,1,0.4,1,1S18.6,20,18,20z"/></svg>