<svg xmlns="http://www.w3.org/2000/svg" xmlns:xlink="http://www.w3.org/1999/xlink" id="Ebene_1" width="24" height="24" x="0" y="0" enable-background="new 0 0 24 24" version="1.1" viewBox="0 0 24 24" xml:space="preserve"><g><path fill="#FFF" d="M20,4H4C2.9,4,2,4.9,2,6v12c0,1.1,0.9,2,2,2h16c1.1,0,2-0.9,2-2V6C22,4.9,21.1,4,20,4z M20,18H4V6h16V18z"/><polygon fill="#FFF" points="15.5 12.5 13 15.5 9.5 11 5 17 19 17"/><path fill="#FFF" d="M18.4,10.4c0.8-0.8,0.8-2.1,0-2.9c-0.2-0.2-0.5-0.4-0.7-0.5c0.3,0.7,0.1,1.6-0.5,2.2 C16.6,9.8,15.7,10,15,9.7c0.1,0.3,0.3,0.5,0.5,0.7C16.3,11.2,17.6,11.2,18.4,10.4z"/></g></svg>