<svg xmlns="http://www.w3.org/2000/svg" xmlns:xlink="http://www.w3.org/1999/xlink" id="Ebene_1" width="24" height="24" x="0" y="0" enable-background="new 0 0 24 24" version="1.1" viewBox="0 0 24 24" xml:space="preserve"><path fill="#FFF" d="M9,11.2l6.2-3.6C15.4,7.9,15.7,8,16,8h4c0.6,0,1-0.4,1-1V3c0-0.6-0.4-1-1-1h-4c-0.6,0-1,0.4-1,1v2.7L8.7,9.3	C8.6,9.1,8.3,9,8,9H4c-0.6,0-1,0.4-1,1v4c0,0.6,0.4,1,1,1h4c0.3,0,0.5-0.1,0.7-0.3l6.3,3.8V21c0,0.6,0.4,1,1,1h4c0.6,0,1-0.4,1-1v-4	c0-0.6-0.4-1-1-1h-4c-0.4,0-0.6,0.2-0.8,0.5L9,12.8V11.2z M17,4h2v2h-2V4z M7,13H5v-2h2V13z M17,18h2v2h-2V18z"/></svg>