<svg xmlns="http://www.w3.org/2000/svg" xmlns:xlink="http://www.w3.org/1999/xlink" id="Ebene_2_1_" width="24" height="24" x="0" y="0" enable-background="new 0 0 24 24" version="1.1" viewBox="0 0 24 24" xml:space="preserve"><path fill="#FFF" d="M20.8,7.1c-0.1-0.2-0.3-0.4-0.5-0.5l-7.6-4.2c-0.2-0.1-0.4-0.2-0.7-0.2c-0.2,0-0.5,0-0.7,0.2L3.7,6.6	C3.5,6.7,3.3,6.9,3.2,7.1C3.1,7.3,3,7.6,3,7.8v8.4c0,0.5,0.3,1,0.7,1.2l7.6,4.2c0.2,0.1,0.4,0.2,0.7,0.2s0.5-0.1,0.7-0.2l7.6-4.2	c0.4-0.2,0.7-0.7,0.7-1.2V7.8C21,7.6,20.9,7.3,20.8,7.1z M12,4.3l5.9,3.3L12,10.9L6.1,7.6L12,4.3z M5,9.2l6,3.3v6.6l-6-3.3V9.2z M13,19.1v-6.6l6-3.3v6.6L13,19.1z"/></svg>