<svg xmlns="http://www.w3.org/2000/svg" xmlns:xlink="http://www.w3.org/1999/xlink" id="Ebene_1" width="24" height="24" x="0" y="0" enable-background="new 0 0 24 24" version="1.1" viewBox="0 0 24 24" xml:space="preserve"><g><polygon fill="#FFF" points="14 8 14 8 14 10 14 12 14 14 18 14 18 12 18 10 18 8 18 8 20 8 18 6 16 4 14 6 12 8"/><path fill="#FFF" d="M19,10v2h1.6L19,18H6l1.6-6H13v-2H6.1L4,18V8h6l0.7-0.7L12,6l0,0l-2-2H4C2.9,4,2,4.9,2,6v12 c0,1.1,0.9,2,2,2h15c0.9,0,1.7-0.6,1.9-1.5l2.3-8.5H19z"/></g></svg>