<svg xmlns="http://www.w3.org/2000/svg" xmlns:xlink="http://www.w3.org/1999/xlink" id="Ebene_1" width="24" height="24" x="0" y="0" enable-background="new 0 0 24 24" version="1.1" viewBox="0 0 24 24" xml:space="preserve"><path fill="#FFF" d="M21,8c0.6,0,1-0.4,1-1V3c0-0.5-0.4-1-1-1h-4c-0.6,0-1,0.4-1,1v1H8V3c0-0.6-0.4-1-1-1H3C2.4,2,2,2.4,2,3v4	c0,0.6,0.4,1,1,1h1v8H3c-0.6,0-1,0.4-1,1v4c0,0.6,0.4,1,1,1h4c0.6,0,1-0.4,1-1v-1h8v1c0,0.6,0.4,1,1,1h4c0.6,0,1-0.4,1-1v-4	c0-0.6-0.4-1-1-1h-1V8H21z M4,4h2v2H4V4z M6,20H4v-2h2V20z M16,17v1H8v-1c0-0.6-0.4-1-1-1H6V8h1c0.6,0,1-0.4,1-1V6h8v1	c0,0.6,0.4,1,1,1h1v8h-1C16.4,16,16,16.4,16,17z M20,20h-2v-2h2V20z M18,6V4h2v2H18z"/></svg>