<svg xmlns="http://www.w3.org/2000/svg" xmlns:xlink="http://www.w3.org/1999/xlink" id="Ebene_1" width="24" height="24" x="0" y="0" enable-background="new 0 0 24 24" version="1.1" viewBox="0 0 24 24" xml:space="preserve"><g><rect width="2" height="2" x="16" y="11" fill="#FFF"/><rect width="2" height="2" x="16" y="15" fill="#FFF"/><path fill="#FFF" d="M12,7V3H2v18h20V7H12z M6,19H4v-2h2V19z M6,15H4v-2h2V15z M6,11H4V9h2V11z M6,7H4V5h2V7z M10,19H8v-2h2V19z M10,15H8v-2h2V15z M10,11H8V9h2V11z M10,7H8V5h2V7z M20,19h-8v-2h2v-2h-2v-2h2v-2h-2V9h8V19z"/></g></svg>