<svg xmlns="http://www.w3.org/2000/svg" xmlns:xlink="http://www.w3.org/1999/xlink" id="Ebene_1" width="24" height="24" x="0" y="0" enable-background="new 0 0 24 24" version="1.1" viewBox="0 0 24 24" xml:space="preserve"><g><path fill="#FFF" d="M21,6c0-1.1-0.9-2-2-2h-1V2h-2v2H8V2H6v2H5C3.9,4,3,4.9,3,6h0v0v2v12c0,1.1,0.9,2,2,2h14c1.1,0,2-0.9,2-2V8 L21,6L21,6L21,6z M19,20H5V8h14V20z"/><rect width="2" height="2" x="15" y="12" fill="#FFF"/><rect width="2" height="2" x="15" y="16" fill="#FFF"/><rect width="2" height="2" x="7" y="16" fill="#FFF"/><rect width="2" height="2" x="11" y="16" fill="#FFF"/><rect width="2" height="2" x="11" y="12" fill="#FFF"/><rect width="2" height="2" x="7" y="12" fill="#FFF"/></g><circle cx="18" cy="6" r="6" fill="#F03C28"/><polygon fill="#FFF" points="20.1 9.9 17 6.7 17 2 18 2 18 6.3 20.9 9.1"/></svg>