<svg xmlns="http://www.w3.org/2000/svg" xmlns:xlink="http://www.w3.org/1999/xlink" id="Ebene_1" width="12" height="12" x="0" y="0" enable-background="new 0 0 12 12" version="1.1" viewBox="0 0 12 12" xml:space="preserve"><circle cx="6" cy="6" r="6" fill="#858789"/><path fill="#FFF" d="M9.6,8.2l-1-1C9,6.4,9.2,5.4,8.8,4.4C8.4,3.2,7.3,2.2,6.1,2c-2.4-0.4-4.4,1.7-4,4c0.2,1.3,1.1,2.3,2.3,2.7	c1,0.4,2,0.2,2.8-0.2l1,1c0.4,0.4,1,0.4,1.4,0l0,0C10,9.2,10,8.6,9.6,8.2z M4,5.5C4,4.7,4.7,4,5.5,4S7,4.7,7,5.5S6.3,7,5.5,7	S4,6.3,4,5.5z"/></svg>