<svg xmlns="http://www.w3.org/2000/svg" xmlns:xlink="http://www.w3.org/1999/xlink" id="Ebene_1" width="24" height="24" x="0" y="0" enable-background="new 0 0 24 24" version="1.1" viewBox="0 0 24 24" xml:space="preserve"><path fill="#FFF" d="M21,6.7v10.6c-2.6-0.7-5.9-1.3-9-1.3c-3.1,0-6.4,0.6-9,1.3V6.7C5.6,7.4,8.9,8,12,8S18.4,7.4,21,6.7 M22.2,4.3c-0.1,0-0.2,0-0.2,0C19.5,5.1,15.6,6,12,6S4.5,5.1,2,4.4c-0.1,0-0.2,0-0.2,0C1.4,4.3,1,4.7,1,5.1v13.8	c0,0.5,0.4,0.8,0.8,0.8c0.1,0,0.2,0,0.2,0C4.5,18.9,8.4,18,12,18s7.5,0.9,10,1.6c0.1,0,0.2,0,0.2,0c0.4,0,0.8-0.3,0.8-0.8V5.1	C23,4.7,22.6,4.3,22.2,4.3L22.2,4.3z"/><path fill="#FFF" d="M11,13.5l-2.5-3L5,15h14l-4.5-6L11,13.5z"/><circle cx="6.5" cy="9.5" r="1.5" fill="#FFF"/></svg>