<svg xmlns="http://www.w3.org/2000/svg" xmlns:xlink="http://www.w3.org/1999/xlink" id="Ebene_1" width="24" height="24" x="0" y="0" enable-background="new 0 0 24 24" version="1.1" viewBox="0 0 24 24" xml:space="preserve"><path fill="#FFF" d="M12,4c4.4,0,8,3.6,8,8s-3.6,8-8,8s-8-3.6-8-8S7.6,4,12,4 M12,2C6.5,2,2,6.5,2,12s4.5,10,10,10s10-4.5,10-10	S17.5,2,12,2L12,2z M14.3,7l-5.5,9.5L9.7,17l5.5-9.5L14.3,7z M9,8c0.6,0,1,0.4,1,1v1c0,0.6-0.4,1-1,1s-1-0.4-1-1V9C8,8.4,8.4,8,9,8 M9,7C7.9,7,7,7.9,7,9v1c0,1.1,0.9,2,2,2s2-0.9,2-2V9C11,7.9,10.1,7,9,7L9,7z M15,13c0.6,0,1,0.4,1,1v1c0,0.6-0.4,1-1,1s-1-0.4-1-1	v-1C14,13.4,14.4,13,15,13 M15,12c-1.1,0-2,0.9-2,2v1c0,1.1,0.9,2,2,2s2-0.9,2-2v-1C17,12.9,16.1,12,15,12L15,12z"/></svg>