<svg xmlns="http://www.w3.org/2000/svg" xmlns:xlink="http://www.w3.org/1999/xlink" id="Ebene_1" width="30" height="30" x="0" y="0" enable-background="new 0 0 30 30" version="1.1" viewBox="0 0 30 30" xml:space="preserve"><path fill="#FFF" d="M13.6,3c0.2,0,0.4,0.1,0.6,0.2l12.6,12.6c0.2,0.2,0.2,0.4,0.2,0.6c0,0.3-0.1,0.4-0.2,0.6l-9.8,9.8	c-0.1,0.1-0.3,0.2-0.5,0.2c-0.2,0-0.4-0.1-0.6-0.2L3.2,14.2C3.1,14.1,3,13.9,3,13.6V3H13.6 M13.6,1H3C1.9,1,1,1.9,1,3v10.6	c0,0.8,0.3,1.5,0.8,2l12.6,12.6c0.5,0.5,1.2,0.8,2,0.8c0.8,0,1.5-0.3,2-0.8l9.8-9.8c0.5-0.5,0.8-1.2,0.8-2c0-0.8-0.3-1.5-0.8-2	L15.6,1.8C15.1,1.3,14.4,1,13.6,1L13.6,1z"/><path fill="#FFF" d="M8,7c0.6,0,1,0.4,1,1S8.6,9,8,9S7,8.6,7,8S7.4,7,8,7 M8,5C6.3,5,5,6.3,5,8s1.3,3,3,3s3-1.3,3-3S9.7,5,8,5	L8,5z"/></svg>