<svg xmlns="http://www.w3.org/2000/svg" xmlns:xlink="http://www.w3.org/1999/xlink" id="Ebene_1" width="24" height="24" x="0" y="0" enable-background="new 0 0 24 24" version="1.1" viewBox="0 0 24 24" xml:space="preserve"><g><path fill="#FFF" d="M16,9v10H8V9H16 M18,7H6v12c0,1.1,0.9,2,2,2h8c1.1,0,2-0.9,2-2V7L18,7z"/></g><g><polygon fill="#FFF" points="14.5 3 9.5 3 8.5 4 5 4 5 6 19 6 19 4 15.5 4 14.5 3"/></g><circle cx="18" cy="18" r="6" fill="#F03C28"/><polygon fill="#FFF" points="20.1 14.5 18 16.6 15.9 14.5 14.5 15.9 16.6 18 14.5 20.1 15.9 21.5 18 19.4 20.1 21.5 21.5 20.1 19.4 18 21.5 15.9"/></svg>