<svg xmlns="http://www.w3.org/2000/svg" xmlns:xlink="http://www.w3.org/1999/xlink" id="Ebene_1" width="24" height="24" x="0" y="0" enable-background="new 0 0 24 24" version="1.1" viewBox="0 0 24 24" xml:space="preserve"><path fill="#FFF" d="M19.6,20l-6,0v-2l5.9,0l-2.7-4.6l-1.8,1l1.1-4.1l4.1,1.1l-1.7,0.9l2.7,4.6C22.1,18.3,21.1,20,19.6,20z M7.5,10.6l4.1-1.1l-1.7-1l2-3.5l2.6,4.5l1.7-1L13.7,4c-0.3-0.7-1-1-1.7-1c-0.7,0-1.4,0.3-1.7,1L8.2,7.5L6.4,6.5L7.5,10.6z M9.1,18	l-4.6,0c0,0,0,0,0-0.1l3.2-5.6l-1.7-1L2.7,17c-0.7,1.3,0.2,3,1.8,3h4.6v2l3-3l-3-3V18z"/></svg>