<svg xmlns="http://www.w3.org/2000/svg" xmlns:xlink="http://www.w3.org/1999/xlink" id="Ebene_1" width="24" height="24" x="0" y="0" enable-background="new 0 0 24 24" version="1.1" viewBox="0 0 24 24" xml:space="preserve"><g><path fill="#FFF" d="M12,10c1.3,0,2.4,0.8,2.8,2H13l2.5,2.5L18,12h-2.1c-0.4-1.7-2-3-3.9-3c-2.2,0-4,1.8-4,4h1 C9,11.3,10.3,10,12,10z"/><path fill="#FFF" d="M20,5H4C2.3,5,1,6.3,1,8v8c0,1.7,1.3,3,3,3h16c1.7,0,3-1.3,3-3V8C23,6.3,21.7,5,20,5z M4,14H3v-4h1V14z M20,17H6V7h14V17z"/></g></svg>