<svg xmlns="http://www.w3.org/2000/svg" xmlns:xlink="http://www.w3.org/1999/xlink" id="Ebene_1" width="24" height="24" x="0" y="0" enable-background="new 0 0 24 24" version="1.1" viewBox="0 0 24 24" xml:space="preserve"><g><rect width="2" height="1" x="6" y="12" fill="#FFF"/><path fill="#FFF" d="M20,4H4C2.9,4,2,4.9,2,6v12c0,1.1,0.9,2,2,2h8v2h7v-2h1c1.1,0,2-0.9,2-2V6C22,4.9,21.1,4,20,4z M12,18H6v-1 h6V18z M18,21h-5v-4h5V21z M20,15H4V6h16V15z"/><rect width="9" height="1" x="9" y="10" fill="#FFF"/><rect width="9" height="1" x="9" y="8" fill="#FFF"/><rect width="2" height="1" x="6" y="10" fill="#FFF"/><rect width="2" height="1" x="6" y="8" fill="#FFF"/><rect width="9" height="1" x="9" y="12" fill="#FFF"/></g></svg>