<svg xmlns="http://www.w3.org/2000/svg" xmlns:xlink="http://www.w3.org/1999/xlink" id="Ebene_1" width="24" height="24" x="0" y="0" enable-background="new 0 0 24 24" version="1.1" viewBox="0 0 24 24" xml:space="preserve"><path fill="#FFF" d="M9.2,6c0.5-0.6,1.1-1.1,1.3-0.9c0.4,0.2,0,0.8-0.2,1.2c-0.2,0.3-2.2,3-2.2,4.9c0,1,0.4,1.8,1,2.3	c0.6,0.4,1.4,0.6,2.1,0.4c0.8-0.2,1.5-1.1,2.4-2.2c0.9-1.2,2.2-2.7,3.2-2.7c1.3,0,1.3,0.8,1.4,1.4c-2.9,0.5-4.2,2.9-4.2,4.2	c0,1.3,1.1,2.4,2.5,2.4c1.3,0,3.3-1,3.7-4.7H22v-1.9h-1.9C20,9,19.2,7,16.9,7c-1.8,0-3.3,1.5-3.8,2.2c-0.5,0.6-1.6,1.9-1.8,2.1	c-0.2,0.2-0.5,0.7-0.9,0.7c-0.4,0-0.6-0.6-0.3-1.5c0.3-0.8,1.1-2.2,1.4-2.7c0.6-0.9,1-1.5,1-2.6c0-1.7-1.3-2.2-2-2.2	c-1,0-1.9,0.8-2.1,1C8.3,4.2,8,4.5,7.9,4.7L9.2,6z M16.4,15.1c-0.2,0-0.6-0.2-0.6-0.6c0-0.5,0.6-1.7,2.2-2.1	C17.9,14.5,17,15.1,16.4,15.1z"/><path fill="#FFF" d="M22,20.9H2v-1h20V20.9 M6.2,17.2l-0.7,0.7l-1.4-1.4l-1.4,1.4L2,17.2l1.4-1.4L2,14.4l0.7-0.7l1.4,1.4l1.4-1.4	l0.7,0.7l-1.4,1.4L6.2,17.2"/></svg>