<svg xmlns="http://www.w3.org/2000/svg" xmlns:xlink="http://www.w3.org/1999/xlink" id="Ebene_1" width="24" height="24" x="0" y="0" enable-background="new 0 0 24 24" version="1.1" viewBox="0 0 24 24" xml:space="preserve"><path fill="#FFF" d="M19,3h-4.2c-0.4-1.2-1.5-2-2.8-2S9.6,1.8,9.2,3H5C3.9,3,3,3.9,3,5v14c0,1.1,0.9,2,2,2h14c1.1,0,2-0.9,2-2V5	C21,3.9,20.1,3,19,3z M12,3c0.6,0,1,0.4,1,1s-0.4,1-1,1s-1-0.4-1-1S11.4,3,12,3z M19,19H5V5h2v2h10V5h2V19z"/><rect width="2" height="2" x="7" y="10" fill="#FFF"/><rect width="7" height="1" x="10" y="10" fill="#FFF"/><rect width="2" height="2" x="7" y="14" fill="#FFF"/><rect width="7" height="1" x="10" y="14" fill="#FFF"/></svg>