<svg xmlns="http://www.w3.org/2000/svg" xmlns:xlink="http://www.w3.org/1999/xlink" id="Ebene_1" width="24" height="24" x="0" y="0" enable-background="new 0 0 24 24" version="1.1" viewBox="0 0 24 24" xml:space="preserve"><rect width="4" height="4" x="2" y="17" fill="#FFF" transform="matrix(4.479268e-11 -1 1 4.479268e-11 -14.9982 23.0102)"/><rect width="4" height="4" x="2" y="12" fill="#FFF" transform="matrix(4.479268e-11 -1 1 4.479268e-11 -9.9952 18.0072)"/><rect width="4" height="4" x="2" y="7" fill="#FFF" transform="matrix(4.479268e-11 -1 1 4.479268e-11 -4.9922 13.0042)"/><rect width="4" height="4" x="2" y="2" fill="#FFF" transform="matrix(4.479268e-11 -1 1 4.479268e-11 1.077732e-02 8.0012)"/><rect width="19" height="4" x="-.5" y="9.5" fill="#FFF" transform="matrix(4.485307e-11 -1 1 4.485307e-11 -2.5012 20.5096)"/><rect width="4" height="4" x="12" y="17" fill="#FFF" transform="matrix(4.502005e-11 -1 1 4.502005e-11 -5.0012 33.0096)"/><rect width="4" height="4" x="12" y="12" fill="#FFF" transform="matrix(4.502005e-11 -1 1 4.502005e-11 1.796220e-03 28.0066)"/><rect width="4" height="4" x="12" y="7" fill="#FFF" transform="matrix(4.456530e-11 -1 1 4.456530e-11 5.0048 23.0036)"/><rect width="4" height="4" x="12" y="2" fill="#FFF" transform="matrix(4.502005e-11 -1 1 4.502005e-11 10.0078 18.0006)"/><rect width="4" height="4" x="17" y="17" fill="#FFF" transform="matrix(4.502005e-11 -1 1 4.502005e-11 -1.529049e-09 38.0084)"/><rect width="4" height="4" x="17" y="12" fill="#FFF" transform="matrix(4.502005e-11 -1 1 4.502005e-11 5.003 33.0054)"/><rect width="4" height="4" x="17" y="7" fill="#FFF" transform="matrix(4.456530e-11 -1 1 4.456530e-11 10.006 28.0024)"/><rect width="4" height="4" x="17" y="2" fill="#FFF" transform="matrix(4.502005e-11 -1 1 4.502005e-11 15.009 22.9994)"/></svg>