<svg xmlns="http://www.w3.org/2000/svg" xmlns:xlink="http://www.w3.org/1999/xlink" id="Ebene_1" width="24" height="24" x="0" y="0" enable-background="new 0 0 24 24" version="1.1" viewBox="0 0 24 24" xml:space="preserve"><path fill="#FFF" d="M12,2C6.5,2,2,6.5,2,12s4.5,10,10,10s10-4.5,10-10S17.5,2,12,2 M12,20c-4.4,0-8-3.6-8-8s3.6-8,8-8s8,3.6,8,8	S16.4,20,12,20 M11,10.1H9.2V15H7.7v-4.9H5.9V9h5v1.1H11z M13.5,9l1.3,4.2L16.1,9H18v6h-1.5v-1.4l0.1-2.9L15.3,15h-1l-1.5-4.3	l0.1,2.9V15h-1.4V9H13.5z"/></svg>