<svg xmlns="http://www.w3.org/2000/svg" xmlns:xlink="http://www.w3.org/1999/xlink" id="Ebene_1" width="24" height="24" x="0" y="0" enable-background="new 0 0 24 24" version="1.1" viewBox="0 0 24 24" xml:space="preserve"><path fill="#FFF" d="M7,7h4c0.6,0,1-0.4,1-1V2c0-0.6-0.4-1-1-1H7C6.4,1,6,1.4,6,2v1H5C3.3,3,2,4.3,2,6v12c0,1.7,1.3,3,3,3h1v1	c0,0.6,0.4,1,1,1h4c0.6,0,1-0.4,1-1v-4c0-0.6-0.4-1-1-1H7c-0.6,0-1,0.4-1,1v1H5c-0.6,0-1-0.4-1-1v-5l2,0v1c0,0.6,0.4,1,1,1h4	c0.6,0,1-0.4,1-1v-4c0-0.6-0.4-1-1-1H7c-0.6,0-1,0.4-1,1v1l-2,0V6c0-0.6,0.4-1,1-1h1v1C6,6.6,6.4,7,7,7z M8,3h2v2H8V3z M8,19h2v2H8	V19z M8,11h2v2H8V11z"/><polygon fill="#FFF" points="22 10 18 10 18 8 14 12 18 16 18 14 22 14"/></svg>