<svg xmlns="http://www.w3.org/2000/svg" xmlns:xlink="http://www.w3.org/1999/xlink" id="Ebene_1" width="24" height="24" x="0" y="0" enable-background="new 0 0 24 24" version="1.1" viewBox="0 0 24 24" xml:space="preserve"><path fill="none" d="M0,0h24v24H0V0z"/><path fill="#A3A5A7" d="M3,20h18v-4H3V20z M4,17h2v2H4V17z M3,4v4h18V4H3z M6,7H4V5h2V7z M3,14h18v-4H3V14z M4,11h2v2H4V11z"/><circle cx="18" cy="18" r="6" fill="#28A050"/><polygon fill="#FFF" points="22 17 19 17 19 14 17 14 17 17 14 17 14 19 17 19 17 22 19 22 19 19 22 19"/></svg>