<svg xmlns="http://www.w3.org/2000/svg" xmlns:xlink="http://www.w3.org/1999/xlink" id="Ebene_1" width="24" height="24" x="0" y="0" enable-background="new 0 0 24 24" version="1.1" viewBox="0 0 24 24" xml:space="preserve"><path fill="none" d="M0,0h24v24H0V0z"/><path fill="#A3A5A7" d="M4,4C2.9,4,2,4.9,2,6v12c0,1.1,0.9,2,2,2h16c1.1,0,2-0.9,2-2V6c0-1.1-0.9-2-2-2H4z"/><path fill="#FFF" d="M22,10" enable-background="new" opacity=".5"/><path fill="#FFF" d="M11,14.5l-2.5-3L5,16h14l-4.5-6L11,14.5z"/><circle cx="6.5" cy="8.5" r="1.5" fill="#FFF"/><circle cx="18" cy="18" r="6" fill="#28A050"/><polygon fill="#FFF" points="22 17 19 17 19 14 17 14 17 17 14 17 14 19 17 19 17 22 19 22 19 19 22 19"/></svg>