<svg xmlns="http://www.w3.org/2000/svg" xmlns:xlink="http://www.w3.org/1999/xlink" id="Ebene_1" width="24" height="24" x="0" y="0" enable-background="new 0 0 24 24" version="1.1" viewBox="0 0 24 24" xml:space="preserve"><path fill="#B4B4B4" d="M13,8H5c-1.1,0-2,0.9-2,2v4c0,1.1,0.9,2,2,2h1v4c0,0.6,0.4,1,1,1h2c0.6,0,1-0.4,1-1v-4h3l5,4V4L13,8"/><path fill="#2878F0" d="M21,12c0,1.7-1.2,3.3-3,4V8C19.8,8.8,21,10.3,21,12z"/><rect width="1" height="8" x="10" y="8" fill="#66696C"/><rect width="1" height="8" x="5" y="8" fill="#66696C"/></svg>