<svg xmlns="http://www.w3.org/2000/svg" xmlns:xlink="http://www.w3.org/1999/xlink" id="Ebene_1" width="24" height="24" x="0" y="0" enable-background="new 0 0 24 24" version="1.1" viewBox="0 0 24 24" xml:space="preserve"><path fill="none" d="M0,0h24v24H0V0z"/><path fill="#5A9BF5" d="M22,6V4h-2V2h-2v2H6V2H4v2H2v2h2v12H2v2h2v2h2v-2h12v2h2v-2h2v-2h-2V6H22z M6,6h12v12H6V6z"/><rect width="2" height="2" x="6" y="18" fill="#1A55C2"/><rect width="2" height="2" x="18" y="16" fill="#1A55C2"/><rect width="2" height="2" x="16" y="4" fill="#1A55C2"/><rect width="2" height="2" x="4" y="6" fill="#1A55C2"/></svg>