<svg xmlns="http://www.w3.org/2000/svg" xmlns:xlink="http://www.w3.org/1999/xlink" id="Ebene_1" width="24" height="24" x="0" y="0" enable-background="new 0 0 24 24" version="1.1" viewBox="0 0 24 24" xml:space="preserve"><polyline fill="#2878F0" points="5 15.5 11 15.5 11 19.5 5 19.5 5 15.5"/><polyline fill="#F03C28" points="1 10 7 10 7 14 1 14 1 10"/><polyline fill="#6428B4" points="9 10 15 10 15 14 9 14 9 10"/><polyline fill="#2878F0" points="17 10 23 10 23 14 17 14 17 10"/><polyline fill="#28A050" points="13 15.5 19 15.5 19 19.5 13 19.5 13 15.5"/><polyline fill="#28A050" points="5 4 11 4 11 8 5 8 5 4"/><rect width="6" height="4" x="13" y="4" fill="#F03C28"/></svg>