<svg xmlns="http://www.w3.org/2000/svg" xmlns:xlink="http://www.w3.org/1999/xlink" id="Ebene_1" width="24" height="24" x="0" y="0" enable-background="new 0 0 24 24" version="1.1" viewBox="0 0 24 24" xml:space="preserve"><path fill="#A3A5A7" d="M20,6h-4V4c0-1.1-0.9-2-2-2h-4C8.9,2,8,2.9,8,4v2H4C2.9,6,2,6.9,2,8v11c0,1.1,0.9,2,2,2h16c1.1,0,2-0.9,2-2	V8C22,6.9,21.1,6,20,6z M14,6h-4V4.4C10,4.2,10.2,4,10.4,4h3.2C13.8,4,14,4.2,14,4.4V6z"/><rect width="2" height="4" x="6" y="12" fill="#484B4E"/><rect width="2" height="4" x="16" y="12" fill="#484B4E"/><rect width="20" height="1" x="2" y="13" fill="#484B4E"/></svg>