<svg xmlns="http://www.w3.org/2000/svg" xmlns:xlink="http://www.w3.org/1999/xlink" id="Ebene_1" width="24" height="24" x="0" y="0" enable-background="new 0 0 24 24" version="1.1" viewBox="0 0 24 24" xml:space="preserve"><polygon fill="#FFF" points="7.7 17.5 8 14.5 10.5 14 13.5 14 16 14.5 17.5 18 13.4 19.3 9.2 19.2"/><circle cx="12" cy="9" r="6" fill="#80300D"/><path fill="#1A55C2" d="M20,18c0-2.2-3.6-4-8-4s-8,1.8-8,4v2h16V18z"/><path fill="#E6AA82" d="M12,14c-1,0-2,0.1-2.9,0.3L12,19l2.8-4.7C14,14.1,13,14,12,14z"/><rect width="3" height="5" x="10.5" y="12" fill="#E6AA82"/><path fill="#FAC8A0" d="M15.1,5.5C15.1,5.5,15,5.5,15.1,5.5c-3.3,0-6,2.6-6.1,5.8c0.7,1,1.8,1.7,3,1.7c2.2,0,4-2.3,4-5	C16,7,15.6,6.2,15.1,5.5z"/><polygon fill="#89BBF8" points="15 14 12 19 9 14 6.5 15 12 19 17.5 15"/><circle cx="12" cy="14" r="3" fill="#FAC8A0" display="none"/><circle cx="13.5" cy="9" r=".5" fill="#0C0F12"/><circle cx="10.5" cy="9" r=".5" fill="#0C0F12"/></svg>