<svg xmlns="http://www.w3.org/2000/svg" xmlns:xlink="http://www.w3.org/1999/xlink" id="Ebene_1" width="24" height="24" x="0" y="0" enable-background="new 0 0 24 24" version="1.1" viewBox="0 0 24 24" xml:space="preserve"><path fill="#F07828" d="M17,10.5V8c0-0.5-0.5-1-1-1H8.4l2-2H16c0.6,0,1-0.4,1-1s-0.4-1-1-1h-6C9.7,3,9.5,3.1,9.3,3.3L5.6,7H4	C3.5,7,3,7.5,3,8v8c0,0.5,0.5,1,1,1h3.6l-4.3,4.3c-0.4,0.4-0.4,1,0,1.4s1,0.4,1.4,0l5.3-5.3l5.3,5.3c0.2,0.2,0.5,0.3,0.7,0.3	c0.2,0,0.5-0.1,0.7-0.3c0.4-0.4,0.4-1,0-1.4L12.4,17H16c0.5,0,1-0.5,1-1v-2.5l4,4v-11L17,10.5z"/><g><path fill="#FFF" d="M13,11v2H7v-2H13 M15,9H5v6h10V9L15,9z"/></g></svg>