<svg xmlns="http://www.w3.org/2000/svg" xmlns:xlink="http://www.w3.org/1999/xlink" id="Ebene_1" width="24" height="24" x="0" y="0" enable-background="new 0 0 24 24" version="1.1" viewBox="0 0 24 24" xml:space="preserve"><path fill="#F07828" d="M4,4h3l2-2h6l2,2h3c1.1,0,2,0.9,2,2v12c0,1.1-0.9,2-2,2H4c-1.1,0-2-0.9-2-2V6C2,4.9,2.9,4,4,4"/><path fill="#FFF" d="M12,7c-2.8,0-5,2.2-5,5s2.2,5,5,5s5-2.2,5-5S14.8,7,12,7"/><circle cx="12" cy="12" r="3" fill="#F07828"/><circle cx="18" cy="18" r="6" fill="#2878F0"/><path fill="#FFF" d="M19,15v-1c0-0.6-0.4-1-1-1s-1,0.4-1,1v1h-2v2h1c0.6,0,1,0.4,1,1s-0.4,1-1,1h-1v2h6v-6H19z"/></svg>