<svg xmlns="http://www.w3.org/2000/svg" xmlns:xlink="http://www.w3.org/1999/xlink" id="Ebene_1" width="24" height="24" x="0" y="0" enable-background="new 0 0 24 24" version="1.1" viewBox="0 0 24 24" xml:space="preserve"><polygon fill="#2878F0" points="8 10 7 10 7 8 6 8 6 10 5 10 5 16 6 16 6 18 7 18 7 16 8 16"/><polygon fill="#89BBF8" points="14 4 13 4 13 2 12 2 12 4 11 4 11 10 12 10 12 12 13 12 13 10 14 10"/><polygon fill="#5B9CF5" points="20 4 19 4 19 2 18 2 18 4 17 4 17 16 18 16 18 18 19 18 19 16 20 16"/><polyline fill="#A3A5A7" points="2 2 3 2 3 21 22 21 22 22 2 22 2 2"/></svg>