<svg xmlns="http://www.w3.org/2000/svg" xmlns:xlink="http://www.w3.org/1999/xlink" id="Ebene_1" width="24" height="24" x="0" y="0" enable-background="new 0 0 24 24" version="1.1" viewBox="0 0 24 24" xml:space="preserve"><path fill="none" d="M0,0h24v24H0V0z"/><path fill="#A3A5A7" d="M21,11V9h-2V7c0-1.1-0.9-2-2-2h-2V3h-2v2h-2V3H9v2H7C5.9,5,5,5.9,5,7v2H3v2h2v2H3v2h2v2c0,1.1,0.9,2,2,2h2v2	h2v-2h2v2h2v-2h2c1.1,0,2-0.9,2-2v-2h2v-2h-2v-2H21z"/><rect width="10" height="10" x="7" y="7" fill="#E0E1E2"/><rect width="6" height="6" x="9" y="9" fill="#A3A5A7"/><rect width="2" height="2" x="11" y="11" fill="#E0E1E2"/></svg>