<svg xmlns="http://www.w3.org/2000/svg" xmlns:xlink="http://www.w3.org/1999/xlink" width="100%" height="100%" version="1.1" viewBox="0 0 24 24" xml:space="preserve" style="fill-rule:evenodd;clip-rule:evenodd;stroke-linejoin:round;stroke-miterlimit:1.41421"><g><path d="M20,2l-12,0c-1.1,0 -2,0.9 -2,2l0,12c0,1.1 0.9,2 2,2l12,0c1.1,0 2,-0.9 2,-2l0,-12c0,-1.1 -0.9,-2 -2,-2Zm-1,9l-10,0l0,-2l10,0l0,2Zm-4,4l-6,0l0,-2l6,0l0,2Zm4,-8l-10,0l0,-2l10,0l0,2Z" style="fill:#6428b4;fill-rule:nonzero"/><path d="M4,6l-2,0l0,14c0,1.1 0.9,2 2,2l14,0l0,-2l-14,0l0,-14Z" style="fill:#8c5bc9;fill-rule:nonzero"/></g></svg>