<svg xmlns="http://www.w3.org/2000/svg" xmlns:xlink="http://www.w3.org/1999/xlink" id="Ebene_1" width="24" height="24" x="0" y="0" enable-background="new 0 0 24 24" version="1.1" viewBox="0 0 24 24" xml:space="preserve"><path fill="#A3A5A7" d="M10,12L4.2,4.6C3.9,4.2,4,3.5,4.4,3.2C4.6,3.1,4.8,3,5,3l0,0h14l0,0c0.2,0,0.4,0.1,0.6,0.2	c0.4,0.4,0.5,1,0.2,1.4L14,12l0,0v5.9c0,0.3-0.1,0.6-0.3,0.8l-2,2c-0.4,0.4-1,0.4-1.4,0c-0.2-0.2-0.3-0.5-0.3-0.8V12L10,12z"/><circle cx="18" cy="18" r="6" fill="#F44336"/><polygon fill="#FFF" points="20.1 14.5 18 16.6 15.9 14.5 14.5 15.9 16.6 18 14.5 20.1 15.9 21.5 18 19.4 20.1 21.5 21.5 20.1 19.4 18 21.5 15.9"/></svg>