<svg xmlns="http://www.w3.org/2000/svg" xmlns:xlink="http://www.w3.org/1999/xlink" id="Ebene_1" width="24" height="24" x="0" y="0" enable-background="new 0 0 24 24" version="1.1" viewBox="0 0 24 24" xml:space="preserve"><path fill="none" d="M0,0h24v24H0V0z"/><path fill="#5A9BF5" d="M20,5H4C2.9,5,2,5.9,2,7v10c0,1.1,0.9,2,2,2h16c1.1,0,2-0.9,2-2V7C22,5.9,21.1,5,20,5z"/><rect width="16" height="3" x="4" y="2" fill="#89BBF8"/><rect width="16" height="3" x="4" y="19" fill="#89BBF8"/><path fill="#FFF" d="M12,7c-1.4,0-2.5,1.1-2.5,2.5S10.6,12,12,12s2.5-1.1,2.5-2.5S13.4,7,12,7z M12,10.5c-0.5,0-1-0.5-1-1	s0.5-1,1-1s1,0.5,1,1S12.5,10.5,12,10.5z"/><path fill="#FFF" d="M12,13c-1.7,0-5,0.9-5,3v1h10v-1C17,13.9,13.7,13,12,13z M8.8,15.5c0.6-0.5,2-1,3.2-1s2.6,0.5,3.2,1H8.8z"/></svg>