<svg xmlns="http://www.w3.org/2000/svg" xmlns:xlink="http://www.w3.org/1999/xlink" id="Ebene_1" width="24" height="24" x="0" y="0" enable-background="new 0 0 24 24" version="1.1" viewBox="0 0 24 24" xml:space="preserve"><path fill="#2878F0" d="M14,6c-1.1,0-2,0.9-2,2v1v2v2v2v1c0,1.1,0.9,2,2,2h1V6H14z"/><path fill="#2878F0" d="M20,6h-3v12h3c1.1,0,2-0.9,2-2V8C22,6.9,21.1,6,20,6z"/><path fill="#5B9CF5" d="M16,7c-0.6,0-1-0.4-1-1v12c0-0.5,0.4-1,1-1s1,0.5,1,1V6C17,6.6,16.6,7,16,7z"/><path fill="#A3A5A7" d="M2,14c0,0.6,0.4,1,1,1h9v-2H3C2.4,13,2,13.4,2,14z"/><path fill="#A3A5A7" d="M2,10c0,0.6,0.4,1,1,1h9V9H3C2.4,9,2,9.4,2,10z"/><circle cx="20" cy="12" r="1" fill="#89BBF8"/><circle cx="20" cy="9" r="1" fill="#89BBF8"/><circle cx="20" cy="15" r="1" fill="#89BBF8"/></svg>