<svg xmlns="http://www.w3.org/2000/svg" xmlns:xlink="http://www.w3.org/1999/xlink" id="Ebene_1" width="24" height="24" x="0" y="0" enable-background="new 0 0 24 24" version="1.1" viewBox="0 0 24 24" xml:space="preserve"><rect width="18" height="4" x="3" y="16" fill="#8C5BC9"/><rect width="2" height="2" x="4" y="17" fill="#FFF"/><rect width="18" height="4" x="3" y="4" fill="#8C5BC9"/><rect width="2" height="2" x="4" y="5" fill="#FFF"/><rect width="18" height="4" x="3" y="10" fill="#8C5BC9"/><rect width="2" height="2" x="4" y="11" fill="#FFF"/><circle cx="18" cy="18" r="6" fill="#2878F0"/><path fill="#FFF" d="M18,14c-1.1,0-2,0.4-2.7,1.1L14.1,14v3h3L16,15.8c0.5-0.5,1.2-0.8,2-0.8c1.7,0,3,1.3,3,3s-1.3,3-3,3	c-1.3,0-2.4-0.8-2.8-2h-1c0.4,1.7,2,3,3.9,3c2.2,0,4-1.8,4-4S20.2,14,18,14z"/></svg>