<svg xmlns="http://www.w3.org/2000/svg" xmlns:xlink="http://www.w3.org/1999/xlink" id="Ebene_1" width="24" height="24" x="0" y="0" enable-background="new 0 0 24 24" version="1.1" viewBox="0 0 24 24" xml:space="preserve"><rect width="18" height="4" x="3" y="16" fill="#8C5BC9"/><rect width="2" height="2" x="4" y="17" fill="#FFF"/><rect width="18" height="4" x="3" y="4" fill="#8C5BC9"/><rect width="2" height="2" x="4" y="5" fill="#FFF"/><rect width="18" height="4" x="3" y="10" fill="#8C5BC9"/><rect width="2" height="2" x="4" y="11" fill="#FFF"/><circle cx="18" cy="18" r="6" fill="#2878F0"/><path fill="#FFF" d="M21.9,19L21,18.4c0-0.1,0-0.3,0-0.4s0-0.3,0-0.4l0.8-0.6c0.1-0.1,0-0.1,0-0.2L21,15.3c0-0.1-0.1-0.1-0.2-0.1	c0,0,0,0-0.1,0l-0.9,0.4c-0.1,0-0.1-0.1-0.2-0.1c-0.2-0.2-0.4-0.2-0.5-0.3l-0.2-1.1c0,0,0-0.1-0.2-0.1h-1.5c-0.1,0-0.2,0.1-0.2,0.2	l-0.2,1.1c-0.2,0.1-0.4,0.2-0.6,0.3l-1.1-0.4c-0.1,0-0.2,0-0.2,0.1l-0.8,1.4c0,0.1,0,0.1,0.1,0.2l0.8,0.7c0,0.2,0,0.3,0,0.4	s0,0.2,0,0.4L14.2,19c0,0-0.1,0.1,0,0.2l0.8,1.4c0,0.1,0.1,0.1,0.2,0.1c0,0,0,0,0.1,0l0.9-0.3c0.2,0.2,0.5,0.3,0.8,0.4l0.2,0.9	c0,0.2,0.1,0.3,0.2,0.3h1.4c0.1,0,0.2-0.1,0.2-0.2l0.2-1c0.2-0.1,0.5-0.2,0.7-0.4l1,0.4c0,0,0,0,0.1,0s0.1,0,0.2-0.1l0.8-1.4	C22,19.3,22.1,19.1,21.9,19z M18,19.5c-0.9,0-1.5-0.7-1.5-1.5s0.6-1.5,1.5-1.5c0.8,0,1.5,0.7,1.5,1.5S18.8,19.5,18,19.5z"/></svg>