<svg xmlns="http://www.w3.org/2000/svg" xmlns:xlink="http://www.w3.org/1999/xlink" id="Ebene_1" width="24" height="24" x="0" y="0" enable-background="new 0 0 24 24" version="1.1" viewBox="0 0 24 24" xml:space="preserve"><rect width="6.3" height="1" x="3.2" y="15.4" fill="#2878F0" transform="matrix(0.7597 -0.6503 0.6503 0.7597 -8.834 7.9934)"/><rect width="1" height="6.1" x="5.8" y="4.9" fill="#2878F0" transform="matrix(0.651 -0.7591 0.7591 0.651 -3.8608 7.5993)"/><rect width="6.6" height="1" x="10.9" y="6.3" fill="#2878F0" transform="matrix(0.5304 -0.8478 0.8478 0.5304 0.9273 15.2765)"/><rect width="6.3" height="1" x="13.7" y="11.5" fill="#2878F0"/><rect width="1" height="6.6" x="13.8" y="13.9" fill="#2878F0" transform="matrix(0.8478 -0.5303 0.5303 0.8478 -6.9519 10.1762)"/><g><path fill="#2878F0" d="M11,10c1.1,0,2,0.9,2,2s-0.9,2-2,2s-2-0.9-2-2S9.9,10,11,10 M11,8c-2.2,0-4,1.8-4,4s1.8,4,4,4s4-1.8,4-4 S13.2,8,11,8L11,8z"/></g><circle cx="4" cy="6" r="2" fill="#2878F0"/><circle cx="4" cy="18" r="2" fill="#2878F0"/><circle cx="16" cy="4" r="2" fill="#2878F0"/><circle cx="16" cy="20" r="2" fill="#2878F0"/><circle cx="20" cy="12" r="2" fill="#2878F0"/></svg>