<svg xmlns="http://www.w3.org/2000/svg" xmlns:xlink="http://www.w3.org/1999/xlink" id="Ebene_1" width="24" height="24" x="0" y="0" enable-background="new 0 0 24 24" version="1.1" viewBox="0 0 24 24" xml:space="preserve"><rect width="18" height="4" x="3" y="16" fill="#8C5BC9"/><rect width="2" height="2" x="4" y="17" fill="#FFF"/><rect width="18" height="4" x="3" y="4" fill="#8C5BC9"/><rect width="2" height="2" x="4" y="5" fill="#FFF"/><rect width="18" height="4" x="3" y="10" fill="#8C5BC9"/><rect width="2" height="2" x="4" y="11" fill="#FFF"/><circle cx="18" cy="18" r="6" fill="#28A050"/><path fill="#FFF" d="M13.9,18c0,2.2,1.8,4,4,4c1.9,0,3.5-1.3,3.9-3h-1c-0.4,1.2-1.5,2-2.8,2c-1.7,0-3-1.3-3-3s1.3-3,3-3	c0.8,0,1.5,0.3,2,0.8L18.9,17h3v-3l-1.2,1.1C20,14.4,19.1,14,18,14C15.8,14,13.9,15.8,13.9,18z"/></svg>