<svg xmlns="http://www.w3.org/2000/svg" xmlns:xlink="http://www.w3.org/1999/xlink" id="Ebene_1" width="24" height="24" x="0" y="0" enable-background="new 0 0 24 24" version="1.1" viewBox="0 0 24 24" xml:space="preserve"><path fill="#5B9CF5" d="M14,2H6C4.9,2,4,2.9,4,4v16c0,1.1,0.9,2,2,2h12c1.1,0,2-0.9,2-2V8L14,2z"/><polygon fill="#89BBF8" points="14 2 14 8 20 8"/><g><rect width="2" height="1" x="7" y="11" fill="#FFF"/><rect width="2" height="1" x="11" y="11" fill="#FFF"/><rect width="2" height="1" x="15" y="11" fill="#FFF"/></g><g><rect width="2" height="1" x="7" y="13" fill="#FFF"/><rect width="2" height="1" x="11" y="13" fill="#0C0F12"/><rect width="2" height="1" x="15" y="13" fill="#0C0F12"/></g><g><rect width="2" height="1" x="7" y="15" fill="#0C0F12"/><rect width="2" height="1" x="11" y="15" fill="#FFF"/><rect width="2" height="1" x="15" y="15" fill="#0C0F12"/></g><g><rect width="2" height="1" x="7" y="17" fill="#FFF"/><rect width="2" height="1" x="11" y="17" fill="#0C0F12"/><rect width="2" height="1" x="15" y="17" fill="#0C0F12"/></g></svg>