<svg xmlns="http://www.w3.org/2000/svg" xmlns:xlink="http://www.w3.org/1999/xlink" id="Ebene_1" width="24" height="24" x="0" y="0" enable-background="new 0 0 24 24" version="1.1" viewBox="0 0 24 24" xml:space="preserve"><polyline fill="#A3A5A7" points="5 3 5 21 11 21 11 17.5 13 17.5 13 21 19 21 19 3 5 3"/><path fill="#0C0F12" d="M7,5h2v2H7V5 M11,5h2v2h-2V5 M15,5h2v2h-2V5 M7,9h2v2H7V9 M11,9h2v2h-2V9 M15,9h2v2h-2V9 M7,13h2v2H7V13 M11,13h2v2h-2V13 M15,13h2v2h-2V13 M7,17h2v2H7V17 M15,17h2v2h-2V17z"/></svg>