<svg xmlns="http://www.w3.org/2000/svg" xmlns:xlink="http://www.w3.org/1999/xlink" id="Ebene_1" width="24" height="24" x="0" y="0" enable-background="new 0 0 24 24" version="1.1" viewBox="0 0 24 24" xml:space="preserve"><path fill="#A3A5A7" d="M2,18V6c0-1.1,0.9-2,2-2h16c1.1,0,2,0.9,2,2v12c0,1.1-0.9,2-2,2H4C2.9,20,2,19.1,2,18z"/><polyline fill="#FFF" points="4 8 12 8 12 9 4 9 4 8"/><polyline fill="#FFF" points="4 14 8 14 8 15 4 15 4 14"/><rect width="8" height="1" x="4" y="10" fill="#FFF"/><rect width="8" height="1" x="4" y="12" fill="#FFF"/><polygon fill="#F03C28" points="18 14 14 14 14 22 16 20 18 22"/><g><circle cx="16" cy="15" r="2.5" fill="#FFF"/><path fill="#F03C28" d="M16,13c1.1,0,2,0.9,2,2s-0.9,2-2,2s-2-0.9-2-2S14.9,13,16,13 M16,12c-1.7,0-3,1.3-3,3s1.3,3,3,3s3-1.3,3-3 S17.7,12,16,12L16,12z"/></g></svg>