<svg xmlns="http://www.w3.org/2000/svg" xmlns:xlink="http://www.w3.org/1999/xlink" id="Ebene_1" width="24" height="24" x="0" y="0" enable-background="new 0 0 24 24" version="1.1" viewBox="0 0 24 24" xml:space="preserve"><g><rect width="1.6" height="2" x="15.9" y="10.9" fill="#A3A5A7" transform="matrix(0.7071 -0.7071 0.7071 0.7071 -3.4951 15.3054)"/><polygon fill="#A3A5A7" points="20 14 18 14 18 14.3 20 16.3"/><polygon fill="#A3A5A7" points="13 2 11 2 11 7.3 13 9.3"/><path fill="#A3A5A7" d="M21,19.7L4.3,3L3,4.3l8,8v1.9l-3.6-3.6L6,12l6,6l2.4-2.4l3.6,3.6V20H6v-6H4v6c0,1.1,0.9,2,2,2h12 c0.7,0,1.4-0.4,1.7-1l0,0L21,19.7z"/></g></svg>