<svg xmlns="http://www.w3.org/2000/svg" xmlns:xlink="http://www.w3.org/1999/xlink" id="Ebene_1" width="24" height="24" x="0" y="0" enable-background="new 0 0 24 24" version="1.1" viewBox="0 0 24 24" xml:space="preserve"><path fill="#89BBF8" d="M2,6v12c0,1.1,0.9,2,2,2h16c1.1,0,2-0.9,2-2V6L12,16L2,6z"/><path fill="#89BBF8" d="M20,4H4C2.9,4,2,4.9,2,6l10,10L22,6C22,4.9,21.1,4,20,4z"/><g id="svg_3"><path id="svg_4" fill="#1A55C2" d="m22,6l-10,10l-10,-10l0,1.4l9.3,9.3c0.2,0.2 0.5,0.3 0.7,0.3s0.5,-0.1 0.7,-0.3l9.3,-9.3l0,-1.4z"/></g><circle id="svg_5" cx="18.641" cy="17.887" r="5.057" fill="#28A050" stroke="null"/><polygon id="svg_6" fill="#FFF" stroke="null" points="21.698 17.887 18.641 14.83 18.641 17.123 15.585 17.123 15.585 18.651 18.641 18.651 18.641 20.943"/></svg>