<svg xmlns="http://www.w3.org/2000/svg" xmlns:xlink="http://www.w3.org/1999/xlink" id="Ebene_1" width="24" height="24" x="0" y="0" enable-background="new 0 0 24 24" version="1.1" viewBox="0 0 24 24" xml:space="preserve"><path fill="#89BBF8" d="M2,6v12c0,1.1,0.9,2,2,2h16c1.1,0,2-0.9,2-2V6L12,16L2,6z"/><path fill="#89BBF8" d="M20,4H4C2.9,4,2,4.9,2,6l10,10L22,6C22,4.9,21.1,4,20,4z"/><g><path fill="#1A55C2" d="M22,6L12,16L2,6v1.4l9.3,9.3c0.2,0.2,0.5,0.3,0.7,0.3s0.5-0.1,0.7-0.3L22,7.4V6z"/></g></svg>