<svg xmlns="http://www.w3.org/2000/svg" xmlns:xlink="http://www.w3.org/1999/xlink" id="Ebene_1" width="24" height="24" x="0" y="0" enable-background="new 0 0 24 24" version="1.1" viewBox="0 0 24 24" xml:space="preserve"><path fill="#1A7736" d="M14,2H6C4.9,2,4,2.9,4,4v16c0,1.1,0.9,2,2,2h12c1.1,0,2-0.9,2-2V8L14,2z"/><polyline fill="#28A050" points="14 2 14 8 20 8"/><polyline fill="#FFF" points="15.8 19 14 19 12 15.6 10 19 8.2 19 11.1 14.5 8.2 10 10 10 12 13.4 14 10 15.8 10 12.9 14.5 15.8 19"/></svg>