<svg xmlns="http://www.w3.org/2000/svg" xmlns:xlink="http://www.w3.org/1999/xlink" id="Ebene_1" width="24" height="24" x="0" y="0" enable-background="new 0 0 24 24" version="1.1" viewBox="0 0 24 24" xml:space="preserve"><path fill="#89BBF8" d="M20,22H4c-1.1,0-2-0.9-2-2V10c0-1.1,0.9-2,2-2h16c1.1,0,2,0.9,2,2v10C22,21.1,21.1,22,20,22z"/><g><path fill="#28A050" d="M21.3,8.4l-8.1-6.2c-0.7-0.6-1.7-0.5-2.4,0l-8,6.2C2.3,8.8,2,9.4,2,10l9.8,10L22,10 C22,9.4,21.7,8.8,21.3,8.4z"/></g><path fill="#FFF" d="M7,6.5V11h4.5L9.7,9.2c0.7-0.6,1.6-0.9,2.6-0.9c1.8,0,3.3,1.1,3.8,2.8h1.4c-0.7-2.5-2.8-4-5.2-4	c-1.3,0-2.5,0.5-3.4,1.3L7,6.5z"/></svg>