<svg xmlns="http://www.w3.org/2000/svg" xmlns:xlink="http://www.w3.org/1999/xlink" id="Ebene_1" width="24" height="24" x="0" y="0" enable-background="new 0 0 24 24" version="1.1" viewBox="0 0 24 24" xml:space="preserve"><rect width="6" height="3" x="2" y="6" fill="#89BBF8"/><rect width="6" height="3" x="2" y="11" fill="#89BBF8"/><g><g><rect width="11" height="2" x="10.5" y="6.5" fill="#FFF"/><path fill="#5B9CF5" d="M21,7v1H11V7H21 M22,6H10v3h12V6L22,6z"/></g><g><rect width="11" height="2" x="10.5" y="11.5" fill="#FFF"/><path fill="#5B9CF5" d="M21,12v1H11v-1H21 M22,11H10v3h12V11L22,11z"/></g><g><rect width="11" height="2" x="10.5" y="16.5" fill="#FFF"/><path fill="#5B9CF5" d="M21,17v1H11v-1H21 M22,16H10v3h12V16L22,16z"/></g></g><rect width="6" height="3" x="2" y="16" fill="#89BBF8"/></svg>