<svg xmlns="http://www.w3.org/2000/svg" xmlns:xlink="http://www.w3.org/1999/xlink" id="Ebene_1" width="24" height="24" x="0" y="0" enable-background="new 0 0 24 24" version="1.1" viewBox="0 0 24 24" xml:space="preserve"><g><path fill="#BE9664" d="M20,4v16c0,1.1-0.9,2-2,2H6c-1.1,0-2-0.9-2-2V4c0-1.1,0.9-2,2-2h12C19.1,2,20,2.9,20,4z"/><rect width="12" height="7" x="6" y="13" fill="#FAD26E"/><rect width="12" height="7" x="6" y="4" fill="#FAD26E"/></g><polygon fill="#0C0F12" points="14 17 10 17 10 15 11 15 11 16 13 16 13 15 14 15"/><polygon fill="#0C0F12" points="13 6 13 7 11 7 11 6 10 6 10 8 14 8 14 6"/></svg>