<svg xmlns="http://www.w3.org/2000/svg" xmlns:xlink="http://www.w3.org/1999/xlink" id="Ebene_1" width="24" height="24" x="0" y="0" enable-background="new 0 0 24 24" version="1.1" viewBox="0 0 24 24" xml:space="preserve"><path fill="#5B9CF5" d="M14,2H6C4.9,2,4,2.9,4,4v16c0,1.1,0.9,2,2,2h12c1.1,0,2-0.9,2-2V8L14,2z"/><polygon fill="#89BBF8" points="14 2 14 8 20 8"/><rect width="4" height="1" x="7" y="13" fill="#FFF"/><rect width="4" height="1" x="7" y="15" fill="#FFF"/><rect width="5.8" height="2" x="11.2" y="12" fill="#FFF"/><rect width="5.8" height="2" x="11.2" y="15" fill="#FFF"/><rect width="5" height="1" x="7" y="11" fill="#FFF"/><rect width="5" height="1" x="7" y="17" fill="#FFF"/><path fill="#A3A5A7" d="M22.7,21.3L20.4,19c1-1.1,1.6-2.5,1.6-4c0-3.3-2.7-6-6-6s-6,2.7-6,6s2.7,6,6,6c1,0,2-0.3,2.9-0.7l2.4,2.4	c0.4,0.4,1,0.4,1.4,0S23.1,21.7,22.7,21.3z M12,15c0-2.2,1.8-4,4-4s4,1.8,4,4s-1.8,4-4,4S12,17.2,12,15z"/></svg>