<svg xmlns="http://www.w3.org/2000/svg" xmlns:xlink="http://www.w3.org/1999/xlink" id="Ebene_1" width="24" height="24" x="0" y="0" enable-background="new 0 0 24 24" version="1.1" viewBox="0 0 24 24" xml:space="preserve"><path fill="none" d="M0,0h24v24H0V0z"/><path fill="#B65018" d="M4,7.8v10.5c0,1,0.8,1.8,1.8,1.8h14.4c1,0,1.8-0.8,1.8-1.8V7.8c0-1-0.8-1.8-1.8-1.8H5.8C4.8,6,4,6.8,4,7.8z"/><path fill="#F07828" d="M2,5.8v10.5c0,1,0.8,1.8,1.8,1.8h14.4c1,0,1.8-0.8,1.8-1.8V5.8c0-1-0.8-1.8-1.8-1.8H3.8C2.8,4,2,4.8,2,5.8z"/><path fill="#FFF" d="M10,13.5l-2.5-3L4,15h14l-4.5-6L10,13.5z"/><circle cx="5.5" cy="7.5" r="1.5" fill="#FFF"/></svg>