<svg xmlns="http://www.w3.org/2000/svg" xmlns:xlink="http://www.w3.org/1999/xlink" id="Ebene_2_1_" width="24" height="24" x="0" style="enable-background:new 0 0 24 24" y="0" version="1.1" viewBox="0 0 24 24" xml:space="preserve"><style type="text/css">.st0{fill:#c1c3c5}.st1{fill:#a3a5a7}.st2{fill:#f03c28}.st3{fill:#c2271a}</style><path d="M12,21.8l8.8-14.7c-0.1-0.2-0.3-0.4-0.5-0.5l-7.6-4.2c-0.4-0.2-0.9-0.2-1.4,0L3.7,6.6C3.5,6.7,3.3,6.9,3.2,7.1	L12,21.8z" class="st0"/><path d="M3.2,7.1C3.1,7.3,3,7.6,3,7.8v8.4c0,0.5,0.3,1,0.7,1.2l7.6,4.2c0.2,0.1,0.4,0.2,0.7,0.2V12L3.2,7.1z" class="st0"/><path d="M20.8,7.1C20.9,7.3,21,7.6,21,7.8v8.4c0,0.5-0.3,1-0.7,1.2l-7.6,4.2c-0.2,0.1-0.4,0.2-0.7,0.2V12L20.8,7.1z" class="st1"/><polygon points="7.1 4.7 16 9.8 17.5 8.9 8.7 3.9" class="st2"/><polygon points="16.8 4.7 8 9.8 6.5 8.9 15.3 3.9" class="st2"/><polygon points="16 19.8 16 9.8 17.5 8.9 17.5 19" class="st3"/><polygon points="8 19.8 8 9.8 6.5 8.9 6.5 19" class="st2"/><path d="M12,7.5" class="st2"/></svg>