<svg xmlns="http://www.w3.org/2000/svg" xmlns:xlink="http://www.w3.org/1999/xlink" id="Ebene_1" width="24" height="24" x="0" y="0" enable-background="new 0 0 24 24" version="1.1" viewBox="0 0 24 24" xml:space="preserve"><path fill="#A3A5A7" d="M12,2C8.1,2,5,5.1,5,9c0,2.4,1.2,4.5,3,5.7V16c0,0.5,0.4,1,1,1v4c0,0.5,0.4,1,1,1h4c0.6,0,1-0.5,1-1v-4	c0.6,0,1-0.5,1-1v-1.3c1.8-1.3,3-3.4,3-5.7C19,5.1,15.9,2,12,2z"/><rect width="6" height="1" x="9" y="17" fill="#484B4E"/><rect width="6" height="1" x="9" y="19" fill="#484B4E"/><circle cx="12" cy="9" r="5" fill="#28A050"/><polygon fill="#FFF" points="16 8 13 8 13 5 11 5 11 8 8 8 8 10 11 10 11 13 13 13 13 10 16 10"/></svg>