<svg xmlns="http://www.w3.org/2000/svg" xmlns:xlink="http://www.w3.org/1999/xlink" id="Ebene_1" width="24" height="24" x="0" y="0" enable-background="new 0 0 24 24" version="1.1" viewBox="0 0 24 24" xml:space="preserve"><path fill="#C1C3C5" d="M12.2,3C7.2,2.9,3,7.3,3,12.3L3,19c0,1.1,0.9,2,2,2h0l0-8.7C5,8.4,8,5.1,11.9,5c4-0.1,7.1,3.1,7.1,7v9h0	c1.1,0,2-0.9,2-2v-7C21,7.1,17.1,3.1,12.2,3z"/><path fill="#C1C3C5" d="M7,21H5v-8h2c1.1,0,2,0.9,2,2v4C9,20.1,8.1,21,7,21z"/><path fill="#C1C3C5" d="M17,21h2v-8h-2c-1.1,0-2,0.9-2,2v4C15,20.1,15.9,21,17,21z"/><rect width="1" height="8" x="18" y="13" fill="#858789"/><rect width="1" height="8" x="5" y="13" fill="#858789"/></svg>