<svg xmlns="http://www.w3.org/2000/svg" xmlns:xlink="http://www.w3.org/1999/xlink" id="Ebene_1" width="24" height="24" x="0" y="0" enable-background="new 0 0 24 24" version="1.1" viewBox="0 0 24 24" xml:space="preserve"><g id="GREY_MID"><g><g><rect width="11" height="2" x="6.5" y="11" fill="#A3A5A7"/></g></g></g><path fill="#F03C28" d="M4,10c1.1,0,2,0.9,2,2s-0.9,2-2,2s-2-0.9-2-2S2.9,10,4,10 M4,8c-2.2,0-4,1.8-4,4s1.8,4,4,4s4-1.8,4-4	S6.2,8,4,8L4,8z"/><path fill="#2878F0" d="M20,10c1.1,0,2,0.9,2,2s-0.9,2-2,2s-2-0.9-2-2S18.9,10,20,10 M20,8c-2.2,0-4,1.8-4,4s1.8,4,4,4s4-1.8,4-4	S22.2,8,20,8L20,8z"/></svg>