<svg xmlns="http://www.w3.org/2000/svg" xmlns:xlink="http://www.w3.org/1999/xlink" id="Ebene_1" width="24" height="24" x="0" y="0" enable-background="new 0 0 24 24" version="1.1" viewBox="0 0 24 24" xml:space="preserve"><path fill="#F0DC28" d="M20.5,8H18V6c0-1.1-0.9-2-2-2H6C4.9,4,4,4.9,4,6H0l1,1.5h7.4L9.1,9H2l1,1.5h4L7.6,12H4v4c0,0.6,0.4,1,1,1h18	c0.6,0,1-0.4,1-1v-3.7c0-0.2-0.1-0.4-0.2-0.6l-2.5-3.3C21.1,8.1,20.8,8,20.5,8z"/><path fill="#A3A5A7" d="M19,18.5c0.8,0,1.5-0.7,1.5-1.5s-0.7-1.5-1.5-1.5s-1.5,0.7-1.5,1.5S18.2,18.5,19,18.5"/><polygon fill="#484B4E" points="20.5 9.5 18 9.5 18 12 22.5 12"/><circle cx="9" cy="17" r="1.5" fill="#A3A5A7"/><g><circle cx="9" cy="17" r="2.3" fill="#FFF"/><path fill="#484B4E" d="M9,15.5c0.8,0,1.5,0.7,1.5,1.5S9.8,18.5,9,18.5S7.5,17.8,7.5,17S8.2,15.5,9,15.5 M9,14c-1.7,0-3,1.3-3,3 s1.3,3,3,3s3-1.3,3-3S10.7,14,9,14L9,14z"/></g><g><circle cx="19" cy="17" r="2.3" fill="#FFF"/><g><path fill="#484B4E" d="M19,15.5c0.8,0,1.5,0.7,1.5,1.5s-0.7,1.5-1.5,1.5s-1.5-0.7-1.5-1.5S18.2,15.5,19,15.5 M19,14 c-1.7,0-3,1.3-3,3s1.3,3,3,3s3-1.3,3-3S20.7,14,19,14L19,14z"/></g></g></svg>