<svg xmlns="http://www.w3.org/2000/svg" xmlns:xlink="http://www.w3.org/1999/xlink" id="Ebene_1" width="24" height="24" x="0" y="0" enable-background="new 0 0 24 24" version="1.1" viewBox="0 0 24 24" xml:space="preserve"><rect width="4" height="2" x="-30" y="38" fill="#0C0F12"/><path fill="#89BBF8" d="M20,22H4c-1.1,0-2-0.9-2-2V10c0-1.1,0.9-2,2-2h16c1.1,0,2,0.9,2,2v10C22,21.1,21.1,22,20,22z"/><path fill="#F03C28" d="M21.3,8.4l-8.1-6.2c-0.7-0.6-1.7-0.5-2.4,0l-8,6.2C2.3,8.8,2,9.4,2,10l9.8,10L22,10	C22,9.4,21.7,8.8,21.3,8.4z"/><path fill="#FFF" d="M12,14.7l-0.6-0.6C9.4,12.3,8,11,8,9.5c0-1.2,1-2.2,2.2-2.2c0.7,0,1.4,0.3,1.8,0.8c0.4-0.5,1.1-0.8,1.8-0.8	c1.2,0,2.2,1,2.2,2.2c0,1.5-1.4,2.8-3.4,4.6L12,14.7z"/></svg>