<svg xmlns="http://www.w3.org/2000/svg" xmlns:xlink="http://www.w3.org/1999/xlink" id="Ebene_1" width="24" height="24" x="0" y="0" enable-background="new 0 0 24 24" version="1.1" viewBox="0 0 24 24" xml:space="preserve"><path fill="none" d="M0,0h24v24H0V0z"/><path fill="#A3A5A7" d="M20,18c1.1,0,2-0.9,2-2V5c0-1.1-0.9-2-2-2H4C2.9,3,2,3.9,2,5v11c0,1.1,0.9,2,2,2H0c0,1.1,0.9,2,2,2h20	c1.1,0,2-0.9,2-2H20z"/><rect width="16" height="11" x="4" y="5" fill="#0C0F12"/><circle cx="12" cy="18" r="1" fill="#0C0F12"/></svg>