<svg xmlns="http://www.w3.org/2000/svg" xmlns:xlink="http://www.w3.org/1999/xlink" id="Ebene_1" width="24" height="24" x="0" y="0" enable-background="new 0 0 24 24" version="1.1" viewBox="0 0 24 24" xml:space="preserve"><rect width="19" height="2" x="2" y="19" fill="#A3A5A7"/><polygon fill="#A3A5A7" points="11.5 1 2 6 2 8 21 8 21 6"/><polygon fill="#C1C3C5" points="6.3 6 11.5 3.3 16.7 6"/><path fill="#A3A5A7" d="M5,20H3V7h2V20z M10,7H8v13h2V7z M20,7h-2v13h2V7z M15,7h-2v13h2V7z"/><path fill="#858789" d="M5,9H3V8h2V9z M10,8H8v1h2V8z M20,8h-2v1h2V8z M15,8h-2v1h2V8z"/><path fill="#858789" d="M5,19H3v-1h2V19z M10,18H8v1h2V18z M20,18h-2v1h2V18z M15,18h-2v1h2V18z"/></svg>