<svg xmlns="http://www.w3.org/2000/svg" xmlns:xlink="http://www.w3.org/1999/xlink" id="Ebene_1" width="24" height="24" x="0" y="0" enable-background="new 0 0 24 24" version="1.1" viewBox="0 0 24 24" xml:space="preserve"><path fill="#A3A5A7" d="M18,1H6C4.9,1,4,1.9,4,3v18c0,1.1,0.9,2,2,2h12c1.1,0,2-0.9,2-2V3C20,1.9,19.1,1,18,1z"/><rect width="12" height="16" x="6" y="4" fill="#0C0F12"/><path fill="#FFF" d="M14,11v-1c0-1.1-0.9-2-2-2s-2,0.9-2,2v1c-0.5,0-1,0.5-1,1v3c0,0.5,0.5,1,1,1h4c0.5,0,1-0.5,1-1v-3	C15,11.5,14.5,11,14,11z M13.2,11h-2.4v-1c0-0.7,0.5-1.2,1.2-1.2s1.2,0.5,1.2,1.2L13.2,11z"/></svg>