<svg xmlns="http://www.w3.org/2000/svg" xmlns:xlink="http://www.w3.org/1999/xlink" id="Ebene_1" width="24" height="24" x="0" y="0" enable-background="new 0 0 24 24" version="1.1" viewBox="0 0 24 24" xml:space="preserve"><path fill="#28A050" d="M21.4,13.4l-8,8c-0.8,0.8-2,0.8-2.8,0l-8-8c-0.8-0.8-0.8-2,0-2.8l8-8c0.8-0.8,2-0.8,2.8,0l8,8	C22.2,11.4,22.2,12.6,21.4,13.4z"/><path fill="#FFF" d="M17,13l-1.4-1.4L13,14.2V6h-2v8.2l-2.6-2.6L7,13l5,5L17,13z"/><rect width="2" height="2" x="11" y="15" fill="#FFF"/><rect width="2" height="6" x="11" y="7" fill="#FFF"/></svg>