<svg xmlns="http://www.w3.org/2000/svg" xmlns:xlink="http://www.w3.org/1999/xlink" id="Ebene_1" width="24" height="24" x="0" y="0" enable-background="new 0 0 24 24" version="1.1" viewBox="0 0 24 24" xml:space="preserve"><polygon fill="#FFF" points="7.7 17.5 8 14.5 10.5 14 13.5 14 16 14.5 17.5 18 13.4 19.3 9.2 19.2"/><circle cx="12" cy="8" r="5" fill="#A3A5A7" display="none"/><ellipse cx="12" cy="7" fill="#80300D" rx="5" ry="4"/><path fill="#1A55C2" d="M20,18c0-2.2-3.6-4-8-4s-8,1.8-8,4v2h16V18z"/><rect width="3" height="1" x="10.5" y="12" fill="#E6AA82"/><g><path fill="#FAC8A0" d="M14,7c-1.9,0-3.6-0.9-4.4-2.2C8.6,5.6,8,6.7,8,8c0,2.8,1.8,5,4,5s4-2.3,4-5c0-0.4-0.1-0.9-0.2-1.3 C15.2,6.9,14.6,7,14,7z"/></g><polygon fill="#89BBF8" points="12 20 9 14.3 10.5 13 12 13 13.5 13 15 14.3"/><polygon fill="#1A55C2" points="11 20 11.5 14 11 13 13 13 12.5 14 13 20"/><circle cx="13.5" cy="9" r=".5" fill="#0C0F12"/><circle cx="10.5" cy="9" r=".5" fill="#0C0F12"/></svg>