<svg xmlns="http://www.w3.org/2000/svg" xmlns:xlink="http://www.w3.org/1999/xlink" id="Ebene_1" width="24" height="24" x="0" y="0" enable-background="new 0 0 24 24" version="1.1" viewBox="0 0 24 24" xml:space="preserve"><path fill="#F0DC28" d="M21.4,13.4l-8,8c-0.8,0.8-2,0.8-2.8,0l-8-8c-0.8-0.8-0.8-2,0-2.8l8-8c0.8-0.8,2-0.8,2.8,0l8,8	C22.2,11.4,22.2,12.6,21.4,13.4z"/><path d="M8,11L8,11c0.6,0,1,0.4,1,1l0,0c0,0.6-0.4,1-1,1l0,0c-0.6,0-1-0.4-1-1l0,0C7,11.4,7.4,11,8,11z"/><path d="M12,11L12,11c0.6,0,1,0.4,1,1l0,0c0,0.6-0.4,1-1,1l0,0c-0.6,0-1-0.4-1-1l0,0C11,11.4,11.4,11,12,11z"/><path d="M16,11L16,11c0.6,0,1,0.4,1,1l0,0c0,0.6-0.4,1-1,1l0,0c-0.6,0-1-0.4-1-1l0,0C15,11.4,15.4,11,16,11z"/></svg>