<svg xmlns="http://www.w3.org/2000/svg" xmlns:xlink="http://www.w3.org/1999/xlink" id="Ebene_1" width="24" height="24" x="0" y="0" enable-background="new 0 0 24 24" version="1.1" viewBox="0 0 24 24" xml:space="preserve"><path fill="none" d="M0,0h24v24H0V0z"/><path fill="#A3A5A7" d="M7.7,12l9.7-5.6l-0.8-1.6l-10.4,6L7.7,12z M17.6,17.9L7.6,12l-1.2,1.3l10.2,6.1L17.6,17.9z"/><circle cx="6" cy="12" r="5" fill="#F03C28"/><g><path fill="#2878F0" d="M18,4c0.6,0,1,0.4,1,1s-0.4,1-1,1s-1-0.4-1-1S17.4,4,18,4 M18,2c-1.7,0-3,1.3-3,3s1.3,3,3,3s3-1.3,3-3 S19.7,2,18,2L18,2z"/></g><g><path fill="#2878F0" d="M18,18c0.6,0,1,0.4,1,1s-0.4,1-1,1s-1-0.4-1-1S17.4,18,18,18 M18,16c-1.7,0-3,1.3-3,3c0,1.7,1.3,3,3,3 s3-1.3,3-3C21,17.3,19.7,16,18,16L18,16z"/></g><path fill="#FFF" d="M8,14.8l-2-1.2l-2,1.2l0.5-2.2l-1.7-1.5l2.3-0.3L6,8.8l0.9,2.1L9.1,11l-1.7,1.5L8,14.8z"/></svg>