<svg xmlns="http://www.w3.org/2000/svg" xmlns:xlink="http://www.w3.org/1999/xlink" id="Ebene_1" width="24" height="24" x="0" y="0" enable-background="new 0 0 24 24" version="1.1" viewBox="0 0 24 24" xml:space="preserve"><path fill="#8C5BC9" d="M20,4c1.1,0,2,0.9,2,2v12c0,1.1-0.9,2-2,2H4c-1.1,0-2-0.9-2-2V6c0-1.1,0.9-2,2-2H20z"/><path fill="#FFF" d="M7.5,9.5c0,1.4,1.1,2.5,2.5,2.5s2.5-1.1,2.5-2.5S11.4,7,10,7S7.5,8.1,7.5,9.5z M9,9.5c0-0.5,0.5-1,1-1	s1,0.5,1,1s-0.5,1-1,1S9,10,9,9.5z"/><path fill="#FFF" d="M5,16v1h10v-1c0-2.1-3.3-3-5-3S5,13.9,5,16z M6.8,15.5c0.6-0.5,2-1,3.2-1s2.6,0.5,3.2,1H6.8z"/><path fill="#FFF" d="M17.2,9.2C17.8,8.6,18,7.7,17.7,7c0.3,0.1,0.5,0.3,0.7,0.5c0.8,0.8,0.8,2.1,0,2.9c-0.8,0.8-2.1,0.8-2.9,0	c-0.2-0.2-0.4-0.5-0.5-0.7C15.7,10,16.6,9.8,17.2,9.2z"/></svg>