<svg xmlns="http://www.w3.org/2000/svg" xmlns:xlink="http://www.w3.org/1999/xlink" id="Ebene_1" width="24" height="24" x="0" y="0" enable-background="new 0 0 24 24" version="1.1" viewBox="0 0 24 24" xml:space="preserve"><path fill="none" d="M24,0L0,0l0,24h24V0z"/><path fill="#8C5BC9" d="M20,4c1.1,0,2,0.9,2,2v12c0,1.1-0.9,2-2,2H4c-1.1,0-2-0.9-2-2V6c0-1.1,0.9-2,2-2H20z"/><path fill="#FFF" d="M13,15.5l2.5-3L19,17H5l4.5-6L13,15.5z"/><path fill="#FFF" d="M17.2,9.2C17.8,8.6,18,7.7,17.7,7c0.3,0.1,0.5,0.3,0.7,0.5c0.8,0.8,0.8,2.1,0,2.9c-0.8,0.8-2.1,0.8-2.9,0	c-0.2-0.2-0.4-0.5-0.5-0.7C15.7,10,16.6,9.8,17.2,9.2z"/></svg>