<svg xmlns="http://www.w3.org/2000/svg" xmlns:xlink="http://www.w3.org/1999/xlink" id="Ebene_1" width="24" height="24" x="0" y="0" enable-background="new 0 0 24 24" version="1.1" viewBox="0 0 24 24" xml:space="preserve"><path fill="none" d="M0,0h24v24H0V0z"/><path fill="#A3A5A7" d="M7.7,12l8.7-5l0.2-2.2l-9.3,5.4L7.7,12z M17,17.5L7.6,12l-0.3,1.8l9.3,5.6L17,17.5z"/><path fill="#8C5BC9" d="M19,4v2h-2V4H19 M20,2h-4c-0.6,0-1,0.4-1,1v4c0,0.6,0.4,1,1,1h4c0.6,0,1-0.4,1-1V3C21,2.4,20.6,2,20,2L20,2z"/><path fill="#8C5BC9" d="M19,18v2h-2v-2H19 M20,16h-4c-0.6,0-1,0.4-1,1v4c0,0.6,0.4,1,1,1h4c0.6,0,1-0.4,1-1v-4	C21,16.4,20.6,16,20,16L20,16z"/><path fill="#8C5BC9" d="M7,11v2H5v-2H7 M8,9H4c-0.6,0-1,0.4-1,1v4c0,0.6,0.4,1,1,1h4c0.6,0,1-0.4,1-1v-4C9,9.4,8.6,9,8,9L8,9z"/></svg>