<svg xmlns="http://www.w3.org/2000/svg" xmlns:xlink="http://www.w3.org/1999/xlink" id="Ebene_1" width="24" height="24" x="0" y="0" enable-background="new 0 0 24 24" version="1.1" viewBox="0 0 24 24" xml:space="preserve"><g><path fill="#A3A5A7" d="M20,4v2h-2v0V4H20 M6,18L6,18v2H4v-2H6L6,18 M20,18v2h-2v0v-2H20 M21,2h-4c-0.6,0-1,0.4-1,1v1H7v2h9v1 c0,0.6,0.4,1,1,1h1v8h-1c-0.6,0-1,0.4-1,1v1H8v-1c0-0.6-0.4-1-1-1H6V7H4v9H3c-0.6,0-1,0.4-1,1v4c0,0.6,0.4,1,1,1h4c0.6,0,1-0.4,1-1 v-1h8v1c0,0.6,0.4,1,1,1h4c0.6,0,1-0.4,1-1v-4c0-0.6-0.4-1-1-1h-1V8h1c0.6,0,1-0.4,1-1V3C22,2.5,21.6,2,21,2L21,2z"/></g><path fill="#F03C28" d="M6,4v2H4V4H6 M7,2H3C2.4,2,2,2.4,2,3v4c0,0.6,0.4,1,1,1h4c0.6,0,1-0.4,1-1V3C8,2.4,7.6,2,7,2L7,2z"/></svg>