<svg xmlns="http://www.w3.org/2000/svg" xmlns:xlink="http://www.w3.org/1999/xlink" id="Ebene_1" width="24" height="24" x="0" y="0" enable-background="new 0 0 24 24" version="1.1" viewBox="0 0 24 24" xml:space="preserve"><polygon fill="#A3A5A7" points="12 7 12 3 2 3 2 21 22 21 22 7"/><rect width="2" height="2" x="4" y="17" fill="#0C0F12"/><rect width="2" height="2" x="4" y="13" fill="#0C0F12"/><rect width="2" height="2" x="4" y="9" fill="#0C0F12"/><rect width="2" height="2" x="4" y="5" fill="#0C0F12"/><rect width="2" height="2" x="8" y="17" fill="#0C0F12"/><rect width="2" height="2" x="8" y="13" fill="#0C0F12"/><rect width="2" height="2" x="8" y="9" fill="#0C0F12"/><rect width="2" height="2" x="8" y="5" fill="#0C0F12"/><path fill="#0C0F12" d="M12,9v2h2v2h-2v2h2v2h-2v2h8V9H12z M18,17h-2v-2h2V17z M18,13h-2v-2h2V13z"/></svg>