<svg xmlns="http://www.w3.org/2000/svg" xmlns:xlink="http://www.w3.org/1999/xlink" id="Ebene_1" width="24" height="24" x="0" y="0" enable-background="new 0 0 24 24" version="1.1" viewBox="0 0 24 24" xml:space="preserve"><path fill="none" d="M0,0h24v24H0V0z"/><g><path fill="#C1C3C5" d="M3,8v12c0,1.1,0.9,2,2,2h14c1.1,0,2-0.9,2-2V8H3z"/><path fill="#858789" d="M19,4h-1V2h-2v2H8V2H6v2H5C3.9,4,3,4.9,3,6v2h2h14h2V6C21,4.9,20.1,4,19,4z"/><rect width="2" height="2" x="15" y="12" fill="#0C0F12"/><rect width="2" height="2" x="15" y="16" fill="#0C0F12"/><rect width="2" height="2" x="7" y="16" fill="#0C0F12"/><rect width="2" height="2" x="11" y="16" fill="#0C0F12"/><rect width="2" height="2" x="11" y="12" fill="#0C0F12"/><rect width="2" height="2" x="7" y="12" fill="#0C0F12"/></g><rect width="2" height="2" x="6" y="4" fill="#C1C3C5"/><rect width="2" height="2" x="16" y="4" fill="#C1C3C5"/><circle cx="18" cy="6" r="6" fill="#F03C28"/><polygon fill="#FFF" points="20.1 9.9 17 6.7 17 2 18 2 18 6.3 20.9 9.1"/></svg>