<svg xmlns="http://www.w3.org/2000/svg" xmlns:xlink="http://www.w3.org/1999/xlink" id="Ebene_2_1_" width="24" height="24" x="0" y="0" enable-background="new 0 0 24 24" version="1.1" viewBox="0 0 24 24" xml:space="preserve"><path fill="#DCB469" d="M11.3,2.4L3,7l9,14.8V2.3C11.8,2.3,11.5,2.3,11.3,2.4z"/><path fill="#BE9664" d="M12.7,2.4L21,7l-9,14.8V2.3C12.2,2.3,12.5,2.3,12.7,2.4z"/><g><path fill="#FAD26E" d="M3,7v9.2c0,0.5,0.3,1,0.7,1.2l7.6,4.2c0.2,0.1,0.4,0.2,0.7,0.2V12L3,7z"/></g><g><path fill="#DCB469" d="M12,21.8c0.3,0,0.5-0.1,0.7-0.2l7.6-4.2c0.4-0.2,0.7-0.7,0.7-1.2V7l-9,5V21.8z"/></g><path fill="#FAD26E" d="M24,10c-0.1-0.1-3-3-3-3l-9,5l3,3L24,10z"/><polygon fill="#BE9664" points="0 10 3 7 12 12 9 15"/></svg>