<svg xmlns="http://www.w3.org/2000/svg" xmlns:xlink="http://www.w3.org/1999/xlink" id="Ebene_1" width="24" height="24" x="0" y="0" enable-background="new 0 0 24 24" version="1.1" viewBox="0 0 24 24" xml:space="preserve"><path fill="none" d="M0,0h24v24H0V0z"/><circle cx="12" cy="12" r="10" fill="#F0DC28"/><polygon fill="#0C0F12" points="15.2 7.5 9.7 17 8.8 16.5 14.3 7"/><path d="M9,8c0.6,0,1,0.4,1,1v1c0,0.6-0.4,1-1,1s-1-0.4-1-1V9C8,8.4,8.4,8,9,8 M9,7C7.9,7,7,7.9,7,9v1c0,1.1,0.9,2,2,2s2-0.9,2-2V9	C11,7.9,10.1,7,9,7L9,7z"/><path d="M15,13c0.6,0,1,0.4,1,1v1c0,0.6-0.4,1-1,1s-1-0.4-1-1v-1C14,13.4,14.4,13,15,13 M15,12c-1.1,0-2,0.9-2,2v1c0,1.1,0.9,2,2,2	s2-0.9,2-2v-1C17,12.9,16.1,12,15,12L15,12z"/></svg>