<svg xmlns="http://www.w3.org/2000/svg" xmlns:xlink="http://www.w3.org/1999/xlink" id="Ebene_1" width="24" height="24" x="0" y="0" enable-background="new 0 0 24 24" version="1.1" viewBox="0 0 24 24" xml:space="preserve"><path fill="none" d="M0,0h24v24H0V0z"/><g><path fill="#C1C3C5" d="M3,8v12c0,1.1,0.9,2,2,2h14c1.1,0,2-0.9,2-2V8H3z"/><path fill="#F03C28" d="M19,4h-1V2h-2v2H8V2H6v2H5C3.9,4,3,4.9,3,6v2h2h14h2V6C21,4.9,20.1,4,19,4z"/><rect width="2" height="2" x="6" y="15" fill="#0C0F12"/><rect width="2" height="2" x="10" y="15" fill="#0C0F12"/><rect width="2" height="2" x="10" y="11" fill="#0C0F12"/><rect width="2" height="2" x="6" y="11" fill="#0C0F12"/></g><rect width="2" height="2" x="6" y="4" fill="#F89789"/><rect width="2" height="2" x="16" y="4" fill="#F89789"/><polygon fill="#F03C28" points="17.6 14 16 15.6 14.4 14 13 15.4 14.6 17 13 18.6 14.4 20 16 18.4 17.6 20 19 18.6 17.4 17 19 15.4"/><rect width="2" height="2" x="14" y="11" fill="#0C0F12"/></svg>