<svg xmlns="http://www.w3.org/2000/svg" xmlns:xlink="http://www.w3.org/1999/xlink" id="Ebene_1" width="24" height="24" x="0" y="0" enable-background="new 0 0 24 24" version="1.1" viewBox="0 0 24 24" xml:space="preserve"><path fill="#F07828" d="M20,4c1.1,0,2,0.9,2,2v12c0,1.1-0.9,2-2,2H4c-1.1,0-2-0.9-2-2V6c0-1.1,0.9-2,2-2H20z"/><path fill="#FFF" d="M9.5,9.5c0,1.4,1.1,2.5,2.5,2.5s2.5-1.1,2.5-2.5S13.4,7,12,7S9.5,8.1,9.5,9.5z M11,9.5c0-0.5,0.5-1,1-1	s1,0.5,1,1s-0.5,1-1,1S11,10,11,9.5z"/><path fill="#FFF" d="M7,16v1h10v-1c0-2.1-3.3-3-5-3S7,13.9,7,16z M8.8,15.5c0.6-0.5,2-1,3.2-1s2.6,0.5,3.2,1H8.8z"/></svg>