<svg xmlns="http://www.w3.org/2000/svg" xmlns:xlink="http://www.w3.org/1999/xlink" id="Ebene_1" width="24" height="24" x="0" y="0" enable-background="new 0 0 24 24" version="1.1" viewBox="0 0 24 24" xml:space="preserve"><path fill="none" d="M0,0h24v24H0V0z"/><path fill="#C2271A" d="M14,2H6C4.9,2,4,2.9,4,4v16c0,1.1,0.9,2,2,2h12c1.1,0,2-0.9,2-2V8L14,2z"/><polyline fill="#F03C28" points="14 2 14 8 20 8"/><path fill="#FFF" d="M12.6,11.3h-2v3.2h2.1c0.6,0,0.9-0.2,1.2-0.5s0.4-0.6,0.4-1.1s-0.1-0.8-0.4-1.1	C13.6,11.5,13.2,11.3,12.6,11.3 M15.2,15c-0.6,0.5-1.1,0.7-2.4,0.7h-2.2V19H9v-9h3.8c1.3,0,1.9,0.3,2.4,0.8c0.6,0.6,0.8,1.2,0.8,2.1	C16,13.8,15.8,14.5,15.2,15"/></svg>