<svg xmlns="http://www.w3.org/2000/svg" xmlns:xlink="http://www.w3.org/1999/xlink" id="Ebene_1" width="24" height="24" x="0" y="0" enable-background="new 0 0 24 24" version="1.1" viewBox="0 0 24 24" xml:space="preserve"><path fill="#2878F0" d="M19.9,11H18V7c0-0.6-0.4-1-1-1h-3V4.1c0-1-0.7-1.9-1.7-2.1C11.1,1.8,10,2.8,10,4v2H7C6.4,6,6,6.4,6,7v4h1.9	c1,0,1.9,0.7,2.1,1.7c0.2,1.3-0.8,2.3-2,2.3H6v4c0,0.6,0.4,1,1,1h3v-1.9c0-1,0.7-1.9,1.7-2.1c1.3-0.2,2.3,0.8,2.3,2v2h3	c0.6,0,1-0.4,1-1v-4h2c1.2,0,2.2-1.1,2-2.3C21.8,11.7,20.9,11,19.9,11z"/></svg>