<svg xmlns="http://www.w3.org/2000/svg" xmlns:xlink="http://www.w3.org/1999/xlink" id="Ebene_1" width="24" height="24" x="0" style="enable-background:new 0 0 24 24" y="0" version="1.1" viewBox="0 0 24 24" xml:space="preserve"><style type="text/css">.st0{fill:none}.st1{fill:#2878f0}</style><path d="M0,0h24v24H0V0z" class="st0"/><path d="M18,4l-4,4h3v7c0,1.1-0.9,2-2,2s-2-0.9-2-2V8c0-2.2-1.8-4-4-4S5,5.8,5,8v7H2l4,4l4-4H7V8c0-1.1,0.9-2,2-2	s2,0.9,2,2v7c0,2.2,1.8,4,4,4s4-1.8,4-4V8h3L18,4z" class="st1"/></svg>