<svg xmlns="http://www.w3.org/2000/svg" xmlns:xlink="http://www.w3.org/1999/xlink" id="Ebene_1" width="24" height="24" x="0" y="0" enable-background="new 0 0 24 24" version="1.1" viewBox="0 0 24 24" xml:space="preserve"><path fill="#A3A5A7" d="M6.7,12l8.7-5l0.2-2.2l-9.3,5.4L6.7,12z M16,17.5L6.6,12l-0.3,1.8l9.3,5.6L16,17.5z"/><path fill="#8C5BC9" d="M18,4v2h-2V4H18 M19,2h-4c-0.6,0-1,0.4-1,1v4c0,0.6,0.4,1,1,1h4c0.6,0,1-0.4,1-1V3C20,2.4,19.6,2,19,2L19,2z"/><path fill="#8C5BC9" d="M18,18v2h-2v-2H18 M19,16h-4c-0.6,0-1,0.4-1,1v4c0,0.6,0.4,1,1,1h4c0.6,0,1-0.4,1-1v-4	C20,16.4,19.6,16,19,16L19,16z"/><path fill="#8C5BC9" d="M6,11v2H4v-2H6 M7,9H3c-0.6,0-1,0.4-1,1v4c0,0.6,0.4,1,1,1h4c0.6,0,1-0.4,1-1v-4C8,9.4,7.6,9,7,9L7,9z"/><circle cx="18" cy="18" r="6" fill="#F03C28"/><polygon fill="#FFF" points="18 22 18 19 22 19 22 17 18 17 18 14 14 18"/></svg>