<svg xmlns="http://www.w3.org/2000/svg" xmlns:xlink="http://www.w3.org/1999/xlink" id="Ebene_1" width="24" height="24" x="0" y="0" enable-background="new 0 0 24 24" version="1.1" viewBox="0 0 24 24" xml:space="preserve"><path fill="#A3A5A7" d="M16,1H8C6.3,1,5,2.3,5,4v16c0,1.7,1.3,3,3,3h8c1.7,0,3-1.3,3-3V4C19,2.3,17.7,1,16,1z M14,21h-4v-1h4V21z"/><rect width="10" height="14" x="7" y="4" fill="#2878F0"/><path fill="#FFF" d="M10,12c0-1.3,0.8-2.4,2-2.8V11l2.5-2.5L12,6v2.1c-1.7,0.4-3,2-3,3.9c0,2.2,1.8,4,4,4v-1	C11.3,15,10,13.7,10,12z"/></svg>