<svg xmlns="http://www.w3.org/2000/svg" xmlns:xlink="http://www.w3.org/1999/xlink" id="Ebene_1" width="24" height="24" x="0" y="0" enable-background="new 0 0 24 24" version="1.1" viewBox="0 0 24 24" xml:space="preserve"><g><rect width="4" height="16" x="10" y="4" fill="#F4E557"/><rect width="4" height="1" x="10" y="19" fill="#B7A418"/><rect width="4" height="1" x="10" y="17" fill="#B7A418"/><rect width="4" height="1" x="10" y="15" fill="#B7A418"/><rect width="4" height="1" x="10" y="13" fill="#B7A418"/><rect width="4" height="1" x="10" y="11" fill="#B7A418"/><rect width="4" height="1" x="10" y="9" fill="#B7A418"/><rect width="4" height="1" x="10" y="7" fill="#B7A418"/><rect width="4" height="1" x="10" y="5" fill="#B7A418"/></g><g><rect width="4" height="10" x="16" y="10" fill="#F4E557"/><rect width="4" height="1" x="16" y="19" fill="#B7A418"/><rect width="4" height="1" x="16" y="17" fill="#B7A418"/><rect width="4" height="1" x="16" y="15" fill="#B7A418"/><rect width="4" height="1" x="16" y="13" fill="#B7A418"/><rect width="4" height="1" x="16" y="11" fill="#B7A418"/></g><g><rect width="4" height="6" x="4" y="14" fill="#F4E557"/><rect width="4" height="1" x="4" y="19" fill="#B7A418"/><rect width="4" height="1" x="4" y="17" fill="#B7A418"/><rect width="4" height="1" x="4" y="15" fill="#B7A418"/></g></svg>