<svg xmlns="http://www.w3.org/2000/svg" xmlns:xlink="http://www.w3.org/1999/xlink" id="Ebene_1" width="24" height="24" x="0" y="0" enable-background="new 0 0 24 24" version="1.1" viewBox="0 0 24 24" xml:space="preserve"><path fill="#A3A5A7" d="M4,4h3l2-2h6l2,2h3c1.1,0,2,0.9,2,2v12c0,1.1-0.9,2-2,2H4c-1.1,0-2-0.9-2-2V6C2,4.9,2.9,4,4,4"/><rect width="12" height="10" x="4" y="7" fill="#F07828"/><path fill="#FFF" d="M9,14l-1.5-2L5,15h10l-3.2-4L9,14z"/><circle cx="6" cy="10" r="1" fill="#FFF"/><path fill="#E0E1E2" d="M19,9L19,9c-0.6,0-1-0.4-1-1v0c0-0.6,0.4-1,1-1h0c0.6,0,1,0.4,1,1v0C20,8.6,19.6,9,19,9z"/><path fill="#E0E1E2" d="M19,12L19,12c-0.6,0-1-0.4-1-1v0c0-0.6,0.4-1,1-1h0c0.6,0,1,0.4,1,1v0C20,11.6,19.6,12,19,12z"/><path fill="#E0E1E2" d="M19,15L19,15c-0.6,0-1-0.4-1-1v0c0-0.6,0.4-1,1-1h0c0.6,0,1,0.4,1,1v0C20,14.6,19.6,15,19,15z"/></svg>