<svg xmlns="http://www.w3.org/2000/svg" xmlns:xlink="http://www.w3.org/1999/xlink" id="Ebene_1" width="24" height="24" x="0" y="0" enable-background="new 0 0 24 24" version="1.1" viewBox="0 0 24 24" xml:space="preserve"><path fill="#A3A5A7" d="M4,4h3l2-2h6l2,2h3c1.1,0,2,0.9,2,2v12c0,1.1-0.9,2-2,2H4c-1.1,0-2-0.9-2-2V6C2,4.9,2.9,4,4,4"/><path fill="#2878F0" d="M12,6L12,6c3.3,0,6,2.7,6,6v0c0,3.3-2.7,6-6,6h0c-3.3,0-6-2.7-6-6v0C6,8.7,8.7,6,12,6z"/><path fill="#FFF" d="M8.1,11c0.5-1.7,2.1-3,3.9-3c1.1,0,2,0.4,2.7,1.1L15.9,8v3h-3L14,9.8C13.5,9.3,12.8,9,12,9	c-1.3,0-2.4,0.8-2.8,2H8.1z M14.8,13c-0.4,1.2-1.5,2-2.8,2c-0.8,0-1.5-0.3-2-0.8l1.1-1.2h-3v3l1.2-1.1C10,15.6,10.9,16,12,16	c1.9,0,3.5-1.3,3.9-3H14.8z"/></svg>