<svg xmlns="http://www.w3.org/2000/svg" xmlns:xlink="http://www.w3.org/1999/xlink" id="Ebene_1" width="24" height="24" x="0" y="0" enable-background="new 0 0 24 24" version="1.1" viewBox="0 0 24 24" xml:space="preserve"><path fill="#F03C28" d="M6,15c-2,0-6,1-6,3v1h12v-1C12,16,8,15,6,15"/><circle cx="5.5" cy="10.5" r="2.5" fill="#F03C28"/><circle cx="18.5" cy="10.5" r="2.5" fill="#28A050"/><path fill="#28A050" d="M18,15c-2,0-6,1-6,3v1h12v-1C24,16,20,15,18,15"/><path fill="#2878F0" d="M12,5c-1.9,0-3.5,1.6-3.5,3.5S10.1,12,12,12s3.5-1.6,3.5-3.5S13.9,5,12,5 M12,14c-2.3,0-7,1.2-7,3.5V19h14	v-1.5C19,15.2,14.3,14,12,14"/></svg>