<svg xmlns="http://www.w3.org/2000/svg" xmlns:xlink="http://www.w3.org/1999/xlink" id="Ebene_1" width="24" height="24" x="0" y="0" enable-background="new 0 0 24 24" version="1.1" viewBox="0 0 24 24" xml:space="preserve"><path fill="#F03C28" d="M12.9,15.1l-2.5-2.5l0,0c1.7-1.9,3-4.2,3.7-6.5H17V4h-7V2H8v2H1v2h11.2c-0.7,1.9-1.7,3.8-3.2,5.4	c-0.9-1-1.7-2.2-2.3-3.4h-2c0.7,1.6,1.7,3.2,3,4.6l-5.1,5L4,19l5-5l3.1,3.1L12.9,15.1z"/><path fill="#2878F0" d="M18.5,10h-2L12,22h2l1.1-3h4.7l1.1,3h2L18.5,10z M15.9,17l1.6-4.3l1.6,4.3H15.9z"/><line x1="-21" x2="-21" y1="1.6" y2="-18.4" fill="#F03C28"/></svg>