<svg xmlns="http://www.w3.org/2000/svg" xmlns:xlink="http://www.w3.org/1999/xlink" id="Ebene_1" width="24" height="24" x="0" y="0" enable-background="new 0 0 24 24" version="1.1" viewBox="0 0 24 24" xml:space="preserve"><path fill="#A3A5A7" d="M18,7h-4V4c0-1.1-0.9-2-2-2H6C4.9,2,4,2.9,4,4v11c0,1.1,0.9,2,2,2h4v3c0,1.1,0.9,2,2,2h6c1.1,0,2-0.9,2-2V9	C20,7.9,19.1,7,18,7z"/><path fill="#0C0F12" d="M10,9v6H6V4h6v3h0C10.9,7,10,7.9,10,9z"/><rect width="2" height="1" x="14" y="20" fill="#0C0F12"/><rect width="6" height="10" x="12" y="9" fill="#0C0F12"/><rect width="2" height="1" x="12" y="6" fill="#66696C"/><rect width="2" height="1" x="8.5" y="15.5" fill="#66696C" transform="matrix(-1.836970e-16 1 -1 -1.836970e-16 25.4979 6.5015)"/></svg>