<svg xmlns="http://www.w3.org/2000/svg" xmlns:xlink="http://www.w3.org/1999/xlink" id="Ebene_1" width="24" height="24" x="0" y="0" enable-background="new 0 0 24 24" version="1.1" viewBox="0 0 24 24" xml:space="preserve"><path fill="none" d="M0,0h24v24H0V0z"/><rect width="18" height="4" x="3" y="16" fill="#8C5BC9"/><rect width="2" height="2" x="4" y="17" fill="#FFF"/><rect width="18" height="4" x="3" y="4" fill="#8C5BC9"/><rect width="2" height="2" x="4" y="5" fill="#FFF"/><rect width="18" height="4" x="3" y="10" fill="#8C5BC9"/><rect width="2" height="2" x="4" y="11" fill="#FFF"/><circle cx="18" cy="18" r="6" fill="#2878F0"/><path fill="#FFF" d="M15,15h2v2h-2V15z M19,17h2v-2h-2V17z M15,21h2v-2h-2V21z M19,21h2v-2h-2V21z"/></svg>