<svg xmlns="http://www.w3.org/2000/svg" xmlns:xlink="http://www.w3.org/1999/xlink" id="Ebene_1" width="24" height="24" x="0" y="0" enable-background="new 0 0 24 24" version="1.1" viewBox="0 0 24 24" xml:space="preserve"><path fill="#F0DC28" d="M22,10V6c0-1.1-0.9-2-2-2H4C2.9,4,2,4.9,2,6v4c1.1,0,2,0.9,2,2s-0.9,2-2,2v4c0,1.1,0.9,2,2,2h16	c1.1,0,2-0.9,2-2v-4c-1.1,0-2-0.9-2-2S20.9,10,22,10z"/><polygon fill="#0C0F12" points="15.6 16.8 12 14.5 8.4 16.8 9.5 12.7 6.2 10 10.5 9.7 12 5.8 13.5 9.7 17.8 10 14.5 12.7"/></svg>