<svg xmlns="http://www.w3.org/2000/svg" xmlns:xlink="http://www.w3.org/1999/xlink" id="Ebene_1" width="24" height="24" x="0" y="0" enable-background="new 0 0 24 24" version="1.1" viewBox="0 0 24 24" xml:space="preserve"><polyline fill="#89BBF8" points="10 4 10 6 18 6 18 4 10 4"/><polyline fill="#89BBF8" points="10 8 10 10 18 10 18 8 10 8"/><path fill="#2878F0" d="M21,10.1c-0.1,0-0.3,0.1-0.4,0.2l-1,1l2.1,2.1l1-1c0.2-0.2,0.2-0.6,0-0.8l-1.3-1.3	C21.3,10.2,21.2,10.1,21,10.1"/><polyline fill="#2878F0" points="19.1 11.9 13 17.9 13 20 15.1 20 21.1 13.9 19.1 11.9"/><rect width="12" height="2" x="2" y="12" fill="#89BBF8"/><rect width="8" height="2" x="2" y="16" fill="#89BBF8"/><path fill="#89BBF8" d="M6,6v2H4V6H6 M8,4H2v6h6V4L8,4z"/></svg>