<svg xmlns="http://www.w3.org/2000/svg" xmlns:xlink="http://www.w3.org/1999/xlink" id="Ebene_1" x="0" y="0" version="1.1" viewBox="0 0 150 150" xml:space="preserve" style="enable-background:new 0 0 150 150;background-color:#edf2f4"><style type="text/css">.st0{fill:#8cbcd6}.st1{fill:#fff}.st2{fill:#e1f5fe}.st3{fill:#78909c}</style><path d="M91,95.2H59c-2.2,0-4-2.1-4-4.7V59.5c0-2.6,1.8-4.7,4-4.7h32c2.2,0,4,2.1,4,4.7v30.8C95,92.9,93.2,95.2,91,95.2	z" class="st0"/><circle cx="86" cy="67.4" r="3" class="st1"/><polygon points="71 67.4 60 83.4 82 83.4" class="st2"/><polygon points="82 73.4 74 83.4 90 83.4" class="st1"/><circle cx="92" cy="92.4" r="7" class="st3"/><g><rect width="2.1" height="8.4" x="91" y="88.3" class="st1" transform="matrix(0.7071 -0.7071 0.7071 0.7071 -38.4242 92.1358)"/><rect width="8.4" height="2.1" x="87.8" y="91.4" class="st1" transform="matrix(0.7071 -0.7071 0.7071 0.7071 -38.4298 92.1334)"/></g></svg>