<svg xmlns="http://www.w3.org/2000/svg" xmlns:svg="http://www.w3.org/2000/svg" style="enable-background:new 0 0 47.5 47.5" id="svg2" version="1.1" viewBox="0 0 47.5 47.5" xml:space="preserve"><metadata id="metadata8"/><defs id="defs6"><clipPath id="clipPath16" clipPathUnits="userSpaceOnUse"><path id="path18" d="M 0,38 38,38 38,0 0,0 0,38 Z"/></clipPath></defs><g id="g10" transform="matrix(1.25,0,0,-1.25,0,47.5)"><g id="g12"><g id="g14" clip-path="url(#clipPath16)"><g id="g20" transform="translate(31,1)"><path id="path22" d="m 0,0 -13,0 c -0.552,0 -1,0.447 -1,1 0,0.553 0.448,1 1,1 L 0,2 C 2.542,2 4,3.367 4,5.75 4,7.287 2.357,9 0,9 l -7,0 c -0.553,0 -1,0.447 -1,1 0,0.553 0.447,1 1,1 l 7,0 C 3.589,11 6,8.285 6,5.75 6,2.257 3.645,0 0,0" style="fill:#ea596e;fill-opacity:1;fill-rule:nonzero;stroke:none"/></g><g id="g24" transform="translate(13,10.2832)"><path id="path26" d="m 0,0 c 0,2.85 3,7.035 0,7.035 -4,0 -10.137,-6.566 -10.137,-8.442 0,-1.876 6.441,-1.876 9.29,-1.876 C 2.002,-3.283 0,-2.85 0,0" style="fill:#ccd6dd;fill-opacity:1;fill-rule:nonzero;stroke:none"/></g><g id="g28" transform="translate(34,13.0977)"><path id="path30" d="m 0,0 c 0,7.973 -6.554,9.752 -11.381,8.787 -9.38,-1.876 -11.132,-6.442 -11.132,-10.194 0,-4.922 9.149,-4.691 14.071,-4.691 C -3.521,-6.098 0,-4.923 0,0" style="fill:#ccd6dd;fill-opacity:1;fill-rule:nonzero;stroke:none"/></g><g id="g32" transform="translate(26,14.5039)"><path id="path34" d="M 0,0 -17.106,-1.875 -13.575,-7.504 0,-7.504 0,0 Z" style="fill:#ccd6dd;fill-opacity:1;fill-rule:nonzero;stroke:none"/></g><g id="g36" transform="translate(17.918,19.8569)"><path id="path38" d="m 0,0 c 0,2.683 -1.997,4.857 -4.458,4.857 -2.463,0 -4.46,-2.174 -4.46,-4.857 0,-2.683 1.997,-4.857 4.46,-4.857 C -1.997,-4.857 0,-2.683 0,0" style="fill:#ccd6dd;fill-opacity:1;fill-rule:nonzero;stroke:none"/></g><g id="g40" transform="translate(15.3701,19.3174)"><path id="path42" d="m 0,0 c 0,-1.788 -1.141,-3.239 -2.548,-3.239 -1.408,0 -2.548,1.451 -2.548,3.239 0,1.788 1.14,3.238 2.548,3.238 C -1.141,3.238 0,1.788 0,0" style="fill:#f4abba;fill-opacity:1;fill-rule:nonzero;stroke:none"/></g><g id="g44" transform="translate(11,12.5)"><path id="path46" d="M 0,0 C 0,-0.829 -0.672,-1.5 -1.5,-1.5 -2.328,-1.5 -3,-0.829 -3,0 -3,0.828 -2.328,1.5 -1.5,1.5 -0.672,1.5 0,0.828 0,0" style="fill:#dd2e44;fill-opacity:1;fill-rule:nonzero;stroke:none"/></g></g></g></g></svg>