<svg xmlns="http://www.w3.org/2000/svg" xmlns:svg="http://www.w3.org/2000/svg" style="enable-background:new 0 0 47.5 47.5" id="svg2" version="1.1" viewBox="0 0 47.5 47.5" xml:space="preserve"><metadata id="metadata8"/><defs id="defs6"><clipPath id="clipPath16" clipPathUnits="userSpaceOnUse"><path id="path18" d="M 0,38 38,38 38,0 0,0 0,38 Z"/></clipPath></defs><g id="g10" transform="matrix(1.25,0,0,-1.25,0,47.5)"><g id="g12"><g id="g14" clip-path="url(#clipPath16)"><g id="g20" transform="translate(23.2383,18.9956)"><path id="path22" d="m 0,0 9.883,9.883 c 1.172,1.171 1.172,3.071 0,4.242 -1.172,1.171 -3.071,1.172 -4.242,0 l -9.883,-9.883 -9.883,9.883 c -1.171,1.172 -3.071,1.172 -4.243,0 -1.171,-1.171 -1.171,-3.071 10e-4,-4.243 L -8.484,0 -18.391,-9.907 c -1.171,-1.171 -1.171,-3.071 0,-4.242 0.586,-0.586 1.354,-0.879 2.121,-0.879 0.768,0 1.536,0.293 2.122,0.879 l 9.906,9.906 9.883,-9.882 c 0.586,-0.585 1.353,-0.878 2.121,-0.878 0.767,0 1.535,0.293 2.121,0.878 1.172,1.171 1.172,3.072 0,4.243 L 0,0 Z" style="fill:#414042;fill-opacity:1;fill-rule:nonzero;stroke:none"/></g></g></g></g></svg>